ISO-10303-21;
HEADER;
/* Generated by software containing ST-Developer
 * from STEP Tools, Inc. (www.steptools.com) 
 */

FILE_DESCRIPTION(
/* description */ (''),
/* implementation_level */ '2;1');

FILE_NAME(
/* name */ 'lid.step',
/* time_stamp */ '2026-09-12T20:31:05-06:00',
/* author */ (''),
/* organization */ (''),
/* preprocessor_version */ 'ST-DEVELOPER v20.2',
/* originating_system */ 'Autodesk Translation Framework v15.15.0.0',
/* authorisation */ '');

FILE_SCHEMA (('CONFIG_CONTROL_DESIGN','AUTOMOTIVE_DESIGN { 1 0 10303 214 3 1 1 }'));
ENDSEC;

DATA;
#10=MECHANICAL_DESIGN_GEOMETRIC_PRESENTATION_REPRESENTATION('',(#20,#21),
#753);
#11=CONTEXT_DEPENDENT_OVER_RIDING_STYLED_ITEM('',(#779),#764,#21,(#15));
#12=MAPPED_ITEM('',#13,#501);
#13=REPRESENTATION_MAP(#501,#763);
#14=ITEM_DEFINED_TRANSFORMATION($,$,#469,#500);
#15=(
REPRESENTATION_RELATIONSHIP($,$,#764,#763)
REPRESENTATION_RELATIONSHIP_WITH_TRANSFORMATION(#14)
SHAPE_REPRESENTATION_RELATIONSHIP()
);
#16=CONTEXT_DEPENDENT_SHAPE_REPRESENTATION(#15,#762);
#17=NEXT_ASSEMBLY_USAGE_OCCURRENCE('lid:1','lid:1','lid:1',#766,#767,
'lid:1');
#18=SHAPE_REPRESENTATION_RELATIONSHIP('SRR','None',#764,#19);
#19=ADVANCED_BREP_SHAPE_REPRESENTATION('',(#22),#752);
#20=STYLED_ITEM('',(#779),#22);
#21=STYLED_ITEM('',(#780),#12);
#22=MANIFOLD_SOLID_BREP('Body1',#455);
#23=FACE_BOUND('',#90,.T.);
#24=FACE_BOUND('',#91,.T.);
#25=FACE_BOUND('',#92,.T.);
#26=FACE_BOUND('',#94,.T.);
#27=FACE_BOUND('',#95,.T.);
#28=FACE_BOUND('',#96,.T.);
#29=PLANE('',#473);
#30=PLANE('',#474);
#31=PLANE('',#475);
#32=PLANE('',#476);
#33=PLANE('',#477);
#34=PLANE('',#481);
#35=PLANE('',#482);
#36=PLANE('',#483);
#37=PLANE('',#484);
#38=PLANE('',#485);
#39=PLANE('',#489);
#40=PLANE('',#490);
#41=PLANE('',#491);
#42=PLANE('',#492);
#43=PLANE('',#493);
#44=PLANE('',#497);
#45=PLANE('',#498);
#46=PLANE('',#499);
#47=FACE_OUTER_BOUND('',#69,.T.);
#48=FACE_OUTER_BOUND('',#70,.T.);
#49=FACE_OUTER_BOUND('',#71,.T.);
#50=FACE_OUTER_BOUND('',#72,.T.);
#51=FACE_OUTER_BOUND('',#73,.T.);
#52=FACE_OUTER_BOUND('',#74,.T.);
#53=FACE_OUTER_BOUND('',#75,.T.);
#54=FACE_OUTER_BOUND('',#76,.T.);
#55=FACE_OUTER_BOUND('',#77,.T.);
#56=FACE_OUTER_BOUND('',#78,.T.);
#57=FACE_OUTER_BOUND('',#79,.T.);
#58=FACE_OUTER_BOUND('',#80,.T.);
#59=FACE_OUTER_BOUND('',#81,.T.);
#60=FACE_OUTER_BOUND('',#82,.T.);
#61=FACE_OUTER_BOUND('',#83,.T.);
#62=FACE_OUTER_BOUND('',#84,.T.);
#63=FACE_OUTER_BOUND('',#85,.T.);
#64=FACE_OUTER_BOUND('',#86,.T.);
#65=FACE_OUTER_BOUND('',#87,.T.);
#66=FACE_OUTER_BOUND('',#88,.T.);
#67=FACE_OUTER_BOUND('',#89,.T.);
#68=FACE_OUTER_BOUND('',#93,.T.);
#69=EDGE_LOOP('',(#309,#310,#311,#312));
#70=EDGE_LOOP('',(#313,#314,#315,#316));
#71=EDGE_LOOP('',(#317,#318,#319,#320));
#72=EDGE_LOOP('',(#321,#322,#323,#324));
#73=EDGE_LOOP('',(#325,#326,#327,#328));
#74=EDGE_LOOP('',(#329,#330,#331,#332));
#75=EDGE_LOOP('',(#333,#334,#335,#336));
#76=EDGE_LOOP('',(#337,#338,#339,#340));
#77=EDGE_LOOP('',(#341,#342,#343,#344));
#78=EDGE_LOOP('',(#345,#346,#347,#348));
#79=EDGE_LOOP('',(#349,#350,#351,#352));
#80=EDGE_LOOP('',(#353,#354,#355,#356));
#81=EDGE_LOOP('',(#357,#358,#359,#360));
#82=EDGE_LOOP('',(#361,#362,#363,#364));
#83=EDGE_LOOP('',(#365,#366,#367,#368));
#84=EDGE_LOOP('',(#369,#370,#371,#372));
#85=EDGE_LOOP('',(#373,#374,#375,#376));
#86=EDGE_LOOP('',(#377,#378,#379,#380));
#87=EDGE_LOOP('',(#381,#382,#383,#384));
#88=EDGE_LOOP('',(#385,#386,#387,#388));
#89=EDGE_LOOP('',(#389,#390,#391,#392,#393,#394,#395,#396,#397,#398,#399,
#400,#401,#402,#403,#404,#405));
#90=EDGE_LOOP('',(#406));
#91=EDGE_LOOP('',(#407));
#92=EDGE_LOOP('',(#408));
#93=EDGE_LOOP('',(#409,#410,#411,#412,#413,#414,#415,#416,#417,#418,#419,
#420,#421,#422,#423,#424,#425));
#94=EDGE_LOOP('',(#426));
#95=EDGE_LOOP('',(#427));
#96=EDGE_LOOP('',(#428));
#97=LINE('',#628,#149);
#98=LINE('',#633,#150);
#99=LINE('',#635,#151);
#100=LINE('',#637,#152);
#101=LINE('',#638,#153);
#102=LINE('',#641,#154);
#103=LINE('',#643,#155);
#104=LINE('',#644,#156);
#105=LINE('',#647,#157);
#106=LINE('',#649,#158);
#107=LINE('',#650,#159);
#108=LINE('',#653,#160);
#109=LINE('',#655,#161);
#110=LINE('',#656,#162);
#111=LINE('',#659,#163);
#112=LINE('',#661,#164);
#113=LINE('',#662,#165);
#114=LINE('',#667,#166);
#115=LINE('',#672,#167);
#116=LINE('',#674,#168);
#117=LINE('',#676,#169);
#118=LINE('',#677,#170);
#119=LINE('',#680,#171);
#120=LINE('',#682,#172);
#121=LINE('',#683,#173);
#122=LINE('',#686,#174);
#123=LINE('',#688,#175);
#124=LINE('',#689,#176);
#125=LINE('',#691,#177);
#126=LINE('',#692,#178);
#127=LINE('',#695,#179);
#128=LINE('',#697,#180);
#129=LINE('',#698,#181);
#130=LINE('',#703,#182);
#131=LINE('',#708,#183);
#132=LINE('',#710,#184);
#133=LINE('',#712,#185);
#134=LINE('',#713,#186);
#135=LINE('',#717,#187);
#136=LINE('',#719,#188);
#137=LINE('',#721,#189);
#138=LINE('',#722,#190);
#139=LINE('',#724,#191);
#140=LINE('',#725,#192);
#141=LINE('',#727,#193);
#142=LINE('',#728,#194);
#143=LINE('',#731,#195);
#144=LINE('',#733,#196);
#145=LINE('',#734,#197);
#146=LINE('',#740,#198);
#147=LINE('',#742,#199);
#148=LINE('',#743,#200);
#149=VECTOR('',#510,0.999999999999996);
#150=VECTOR('',#515,10.);
#151=VECTOR('',#516,10.);
#152=VECTOR('',#517,10.);
#153=VECTOR('',#518,10.);
#154=VECTOR('',#521,10.);
#155=VECTOR('',#522,10.);
#156=VECTOR('',#523,10.);
#157=VECTOR('',#526,10.);
#158=VECTOR('',#527,10.);
#159=VECTOR('',#528,10.);
#160=VECTOR('',#531,10.);
#161=VECTOR('',#532,10.);
#162=VECTOR('',#533,10.);
#163=VECTOR('',#536,10.);
#164=VECTOR('',#537,10.);
#165=VECTOR('',#538,10.);
#166=VECTOR('',#543,1.);
#167=VECTOR('',#548,10.);
#168=VECTOR('',#549,10.);
#169=VECTOR('',#550,10.);
#170=VECTOR('',#551,10.);
#171=VECTOR('',#554,10.);
#172=VECTOR('',#555,10.);
#173=VECTOR('',#556,10.);
#174=VECTOR('',#559,10.);
#175=VECTOR('',#560,10.);
#176=VECTOR('',#561,10.);
#177=VECTOR('',#564,10.);
#178=VECTOR('',#565,10.);
#179=VECTOR('',#568,10.);
#180=VECTOR('',#569,10.);
#181=VECTOR('',#570,10.);
#182=VECTOR('',#575,1.);
#183=VECTOR('',#580,10.);
#184=VECTOR('',#581,10.);
#185=VECTOR('',#582,10.);
#186=VECTOR('',#583,10.);
#187=VECTOR('',#586,10.);
#188=VECTOR('',#587,10.);
#189=VECTOR('',#588,10.);
#190=VECTOR('',#589,10.);
#191=VECTOR('',#592,10.);
#192=VECTOR('',#593,10.);
#193=VECTOR('',#596,10.);
#194=VECTOR('',#597,10.);
#195=VECTOR('',#600,10.);
#196=VECTOR('',#601,10.);
#197=VECTOR('',#602,10.);
#198=VECTOR('',#609,10.);
#199=VECTOR('',#612,10.);
#200=VECTOR('',#613,10.);
#201=CIRCLE('',#471,0.999999999999996);
#202=CIRCLE('',#472,0.999999999999996);
#203=CIRCLE('',#479,1.);
#204=CIRCLE('',#480,1.);
#205=CIRCLE('',#487,1.);
#206=CIRCLE('',#488,1.);
#207=CIRCLE('',#495,32.0368545767106);
#208=CIRCLE('',#496,32.0368545767106);
#209=VERTEX_POINT('',#625);
#210=VERTEX_POINT('',#627);
#211=VERTEX_POINT('',#631);
#212=VERTEX_POINT('',#632);
#213=VERTEX_POINT('',#634);
#214=VERTEX_POINT('',#636);
#215=VERTEX_POINT('',#640);
#216=VERTEX_POINT('',#642);
#217=VERTEX_POINT('',#646);
#218=VERTEX_POINT('',#648);
#219=VERTEX_POINT('',#652);
#220=VERTEX_POINT('',#654);
#221=VERTEX_POINT('',#658);
#222=VERTEX_POINT('',#660);
#223=VERTEX_POINT('',#664);
#224=VERTEX_POINT('',#666);
#225=VERTEX_POINT('',#670);
#226=VERTEX_POINT('',#671);
#227=VERTEX_POINT('',#673);
#228=VERTEX_POINT('',#675);
#229=VERTEX_POINT('',#679);
#230=VERTEX_POINT('',#681);
#231=VERTEX_POINT('',#685);
#232=VERTEX_POINT('',#687);
#233=VERTEX_POINT('',#694);
#234=VERTEX_POINT('',#696);
#235=VERTEX_POINT('',#700);
#236=VERTEX_POINT('',#702);
#237=VERTEX_POINT('',#706);
#238=VERTEX_POINT('',#707);
#239=VERTEX_POINT('',#709);
#240=VERTEX_POINT('',#711);
#241=VERTEX_POINT('',#715);
#242=VERTEX_POINT('',#716);
#243=VERTEX_POINT('',#718);
#244=VERTEX_POINT('',#720);
#245=VERTEX_POINT('',#730);
#246=VERTEX_POINT('',#732);
#247=VERTEX_POINT('',#736);
#248=VERTEX_POINT('',#738);
#249=EDGE_CURVE('',#209,#209,#201,.T.);
#250=EDGE_CURVE('',#209,#210,#97,.T.);
#251=EDGE_CURVE('',#210,#210,#202,.T.);
#252=EDGE_CURVE('',#211,#212,#98,.T.);
#253=EDGE_CURVE('',#212,#213,#99,.T.);
#254=EDGE_CURVE('',#214,#213,#100,.T.);
#255=EDGE_CURVE('',#211,#214,#101,.T.);
#256=EDGE_CURVE('',#215,#211,#102,.T.);
#257=EDGE_CURVE('',#216,#214,#103,.T.);
#258=EDGE_CURVE('',#215,#216,#104,.T.);
#259=EDGE_CURVE('',#212,#217,#105,.T.);
#260=EDGE_CURVE('',#218,#217,#106,.T.);
#261=EDGE_CURVE('',#213,#218,#107,.T.);
#262=EDGE_CURVE('',#216,#219,#108,.T.);
#263=EDGE_CURVE('',#219,#220,#109,.T.);
#264=EDGE_CURVE('',#220,#215,#110,.T.);
#265=EDGE_CURVE('',#217,#221,#111,.T.);
#266=EDGE_CURVE('',#221,#222,#112,.T.);
#267=EDGE_CURVE('',#222,#218,#113,.T.);
#268=EDGE_CURVE('',#223,#223,#203,.T.);
#269=EDGE_CURVE('',#223,#224,#114,.T.);
#270=EDGE_CURVE('',#224,#224,#204,.T.);
#271=EDGE_CURVE('',#225,#226,#115,.T.);
#272=EDGE_CURVE('',#227,#225,#116,.T.);
#273=EDGE_CURVE('',#228,#227,#117,.T.);
#274=EDGE_CURVE('',#226,#228,#118,.T.);
#275=EDGE_CURVE('',#226,#229,#119,.T.);
#276=EDGE_CURVE('',#230,#228,#120,.T.);
#277=EDGE_CURVE('',#229,#230,#121,.T.);
#278=EDGE_CURVE('',#229,#231,#122,.T.);
#279=EDGE_CURVE('',#232,#230,#123,.T.);
#280=EDGE_CURVE('',#231,#232,#124,.T.);
#281=EDGE_CURVE('',#225,#220,#125,.T.);
#282=EDGE_CURVE('',#219,#227,#126,.T.);
#283=EDGE_CURVE('',#232,#233,#127,.T.);
#284=EDGE_CURVE('',#233,#234,#128,.T.);
#285=EDGE_CURVE('',#234,#231,#129,.T.);
#286=EDGE_CURVE('',#235,#235,#205,.T.);
#287=EDGE_CURVE('',#235,#236,#130,.T.);
#288=EDGE_CURVE('',#236,#236,#206,.T.);
#289=EDGE_CURVE('',#237,#238,#131,.T.);
#290=EDGE_CURVE('',#238,#239,#132,.T.);
#291=EDGE_CURVE('',#240,#239,#133,.T.);
#292=EDGE_CURVE('',#237,#240,#134,.T.);
#293=EDGE_CURVE('',#241,#242,#135,.T.);
#294=EDGE_CURVE('',#243,#242,#136,.T.);
#295=EDGE_CURVE('',#244,#243,#137,.T.);
#296=EDGE_CURVE('',#241,#244,#138,.T.);
#297=EDGE_CURVE('',#238,#241,#139,.T.);
#298=EDGE_CURVE('',#239,#244,#140,.T.);
#299=EDGE_CURVE('',#222,#240,#141,.T.);
#300=EDGE_CURVE('',#221,#237,#142,.T.);
#301=EDGE_CURVE('',#242,#245,#143,.T.);
#302=EDGE_CURVE('',#246,#245,#144,.T.);
#303=EDGE_CURVE('',#243,#246,#145,.T.);
#304=EDGE_CURVE('',#234,#247,#207,.T.);
#305=EDGE_CURVE('',#248,#233,#208,.T.);
#306=EDGE_CURVE('',#247,#248,#146,.T.);
#307=EDGE_CURVE('',#248,#246,#147,.T.);
#308=EDGE_CURVE('',#245,#247,#148,.T.);
#309=ORIENTED_EDGE('',*,*,#249,.F.);
#310=ORIENTED_EDGE('',*,*,#250,.T.);
#311=ORIENTED_EDGE('',*,*,#251,.F.);
#312=ORIENTED_EDGE('',*,*,#250,.F.);
#313=ORIENTED_EDGE('',*,*,#252,.T.);
#314=ORIENTED_EDGE('',*,*,#253,.T.);
#315=ORIENTED_EDGE('',*,*,#254,.F.);
#316=ORIENTED_EDGE('',*,*,#255,.F.);
#317=ORIENTED_EDGE('',*,*,#256,.T.);
#318=ORIENTED_EDGE('',*,*,#255,.T.);
#319=ORIENTED_EDGE('',*,*,#257,.F.);
#320=ORIENTED_EDGE('',*,*,#258,.F.);
#321=ORIENTED_EDGE('',*,*,#259,.T.);
#322=ORIENTED_EDGE('',*,*,#260,.F.);
#323=ORIENTED_EDGE('',*,*,#261,.F.);
#324=ORIENTED_EDGE('',*,*,#253,.F.);
#325=ORIENTED_EDGE('',*,*,#258,.T.);
#326=ORIENTED_EDGE('',*,*,#262,.T.);
#327=ORIENTED_EDGE('',*,*,#263,.T.);
#328=ORIENTED_EDGE('',*,*,#264,.T.);
#329=ORIENTED_EDGE('',*,*,#260,.T.);
#330=ORIENTED_EDGE('',*,*,#265,.T.);
#331=ORIENTED_EDGE('',*,*,#266,.T.);
#332=ORIENTED_EDGE('',*,*,#267,.T.);
#333=ORIENTED_EDGE('',*,*,#268,.F.);
#334=ORIENTED_EDGE('',*,*,#269,.T.);
#335=ORIENTED_EDGE('',*,*,#270,.F.);
#336=ORIENTED_EDGE('',*,*,#269,.F.);
#337=ORIENTED_EDGE('',*,*,#271,.F.);
#338=ORIENTED_EDGE('',*,*,#272,.F.);
#339=ORIENTED_EDGE('',*,*,#273,.F.);
#340=ORIENTED_EDGE('',*,*,#274,.F.);
#341=ORIENTED_EDGE('',*,*,#275,.F.);
#342=ORIENTED_EDGE('',*,*,#274,.T.);
#343=ORIENTED_EDGE('',*,*,#276,.F.);
#344=ORIENTED_EDGE('',*,*,#277,.F.);
#345=ORIENTED_EDGE('',*,*,#278,.F.);
#346=ORIENTED_EDGE('',*,*,#277,.T.);
#347=ORIENTED_EDGE('',*,*,#279,.F.);
#348=ORIENTED_EDGE('',*,*,#280,.F.);
#349=ORIENTED_EDGE('',*,*,#272,.T.);
#350=ORIENTED_EDGE('',*,*,#281,.T.);
#351=ORIENTED_EDGE('',*,*,#263,.F.);
#352=ORIENTED_EDGE('',*,*,#282,.T.);
#353=ORIENTED_EDGE('',*,*,#280,.T.);
#354=ORIENTED_EDGE('',*,*,#283,.T.);
#355=ORIENTED_EDGE('',*,*,#284,.T.);
#356=ORIENTED_EDGE('',*,*,#285,.T.);
#357=ORIENTED_EDGE('',*,*,#286,.F.);
#358=ORIENTED_EDGE('',*,*,#287,.T.);
#359=ORIENTED_EDGE('',*,*,#288,.F.);
#360=ORIENTED_EDGE('',*,*,#287,.F.);
#361=ORIENTED_EDGE('',*,*,#289,.T.);
#362=ORIENTED_EDGE('',*,*,#290,.T.);
#363=ORIENTED_EDGE('',*,*,#291,.F.);
#364=ORIENTED_EDGE('',*,*,#292,.F.);
#365=ORIENTED_EDGE('',*,*,#293,.T.);
#366=ORIENTED_EDGE('',*,*,#294,.F.);
#367=ORIENTED_EDGE('',*,*,#295,.F.);
#368=ORIENTED_EDGE('',*,*,#296,.F.);
#369=ORIENTED_EDGE('',*,*,#297,.T.);
#370=ORIENTED_EDGE('',*,*,#296,.T.);
#371=ORIENTED_EDGE('',*,*,#298,.F.);
#372=ORIENTED_EDGE('',*,*,#290,.F.);
#373=ORIENTED_EDGE('',*,*,#292,.T.);
#374=ORIENTED_EDGE('',*,*,#299,.F.);
#375=ORIENTED_EDGE('',*,*,#266,.F.);
#376=ORIENTED_EDGE('',*,*,#300,.T.);
#377=ORIENTED_EDGE('',*,*,#294,.T.);
#378=ORIENTED_EDGE('',*,*,#301,.T.);
#379=ORIENTED_EDGE('',*,*,#302,.F.);
#380=ORIENTED_EDGE('',*,*,#303,.F.);
#381=ORIENTED_EDGE('',*,*,#304,.F.);
#382=ORIENTED_EDGE('',*,*,#284,.F.);
#383=ORIENTED_EDGE('',*,*,#305,.F.);
#384=ORIENTED_EDGE('',*,*,#306,.F.);
#385=ORIENTED_EDGE('',*,*,#306,.T.);
#386=ORIENTED_EDGE('',*,*,#307,.T.);
#387=ORIENTED_EDGE('',*,*,#302,.T.);
#388=ORIENTED_EDGE('',*,*,#308,.T.);
#389=ORIENTED_EDGE('',*,*,#304,.T.);
#390=ORIENTED_EDGE('',*,*,#308,.F.);
#391=ORIENTED_EDGE('',*,*,#301,.F.);
#392=ORIENTED_EDGE('',*,*,#293,.F.);
#393=ORIENTED_EDGE('',*,*,#297,.F.);
#394=ORIENTED_EDGE('',*,*,#289,.F.);
#395=ORIENTED_EDGE('',*,*,#300,.F.);
#396=ORIENTED_EDGE('',*,*,#265,.F.);
#397=ORIENTED_EDGE('',*,*,#259,.F.);
#398=ORIENTED_EDGE('',*,*,#252,.F.);
#399=ORIENTED_EDGE('',*,*,#256,.F.);
#400=ORIENTED_EDGE('',*,*,#264,.F.);
#401=ORIENTED_EDGE('',*,*,#281,.F.);
#402=ORIENTED_EDGE('',*,*,#271,.T.);
#403=ORIENTED_EDGE('',*,*,#275,.T.);
#404=ORIENTED_EDGE('',*,*,#278,.T.);
#405=ORIENTED_EDGE('',*,*,#285,.F.);
#406=ORIENTED_EDGE('',*,*,#251,.T.);
#407=ORIENTED_EDGE('',*,*,#270,.T.);
#408=ORIENTED_EDGE('',*,*,#288,.T.);
#409=ORIENTED_EDGE('',*,*,#305,.T.);
#410=ORIENTED_EDGE('',*,*,#283,.F.);
#411=ORIENTED_EDGE('',*,*,#279,.T.);
#412=ORIENTED_EDGE('',*,*,#276,.T.);
#413=ORIENTED_EDGE('',*,*,#273,.T.);
#414=ORIENTED_EDGE('',*,*,#282,.F.);
#415=ORIENTED_EDGE('',*,*,#262,.F.);
#416=ORIENTED_EDGE('',*,*,#257,.T.);
#417=ORIENTED_EDGE('',*,*,#254,.T.);
#418=ORIENTED_EDGE('',*,*,#261,.T.);
#419=ORIENTED_EDGE('',*,*,#267,.F.);
#420=ORIENTED_EDGE('',*,*,#299,.T.);
#421=ORIENTED_EDGE('',*,*,#291,.T.);
#422=ORIENTED_EDGE('',*,*,#298,.T.);
#423=ORIENTED_EDGE('',*,*,#295,.T.);
#424=ORIENTED_EDGE('',*,*,#303,.T.);
#425=ORIENTED_EDGE('',*,*,#307,.F.);
#426=ORIENTED_EDGE('',*,*,#249,.T.);
#427=ORIENTED_EDGE('',*,*,#268,.T.);
#428=ORIENTED_EDGE('',*,*,#286,.T.);
#429=CYLINDRICAL_SURFACE('',#470,0.999999999999996);
#430=CYLINDRICAL_SURFACE('',#478,1.);
#431=CYLINDRICAL_SURFACE('',#486,1.);
#432=CYLINDRICAL_SURFACE('',#494,32.0368545767106);
#433=ADVANCED_FACE('',(#47),#429,.F.);
#434=ADVANCED_FACE('',(#48),#29,.T.);
#435=ADVANCED_FACE('',(#49),#30,.T.);
#436=ADVANCED_FACE('',(#50),#31,.T.);
#437=ADVANCED_FACE('',(#51),#32,.T.);
#438=ADVANCED_FACE('',(#52),#33,.T.);
#439=ADVANCED_FACE('',(#53),#430,.F.);
#440=ADVANCED_FACE('',(#54),#34,.T.);
#441=ADVANCED_FACE('',(#55),#35,.T.);
#442=ADVANCED_FACE('',(#56),#36,.T.);
#443=ADVANCED_FACE('',(#57),#37,.T.);
#444=ADVANCED_FACE('',(#58),#38,.T.);
#445=ADVANCED_FACE('',(#59),#431,.F.);
#446=ADVANCED_FACE('',(#60),#39,.T.);
#447=ADVANCED_FACE('',(#61),#40,.T.);
#448=ADVANCED_FACE('',(#62),#41,.T.);
#449=ADVANCED_FACE('',(#63),#42,.T.);
#450=ADVANCED_FACE('',(#64),#43,.T.);
#451=ADVANCED_FACE('',(#65),#432,.T.);
#452=ADVANCED_FACE('',(#66),#44,.T.);
#453=ADVANCED_FACE('',(#67,#23,#24,#25),#45,.T.);
#454=ADVANCED_FACE('',(#68,#26,#27,#28),#46,.T.);
#455=CLOSED_SHELL('',(#433,#434,#435,#436,#437,#438,#439,#440,#441,#442,
#443,#444,#445,#446,#447,#448,#449,#450,#451,#452,#453,#454));
#456=DERIVED_UNIT_ELEMENT(#458,1.);
#457=DERIVED_UNIT_ELEMENT(#755,-3.);
#458=(
MASS_UNIT()
NAMED_UNIT(*)
SI_UNIT(.KILO.,.GRAM.)
);
#459=DERIVED_UNIT((#456,#457));
#460=MEASURE_REPRESENTATION_ITEM('density measure',
POSITIVE_RATIO_MEASURE(7850.),#459);
#461=PROPERTY_DEFINITION_REPRESENTATION(#466,#463);
#462=PROPERTY_DEFINITION_REPRESENTATION(#467,#464);
#463=REPRESENTATION('material name',(#465),#752);
#464=REPRESENTATION('density',(#460),#752);
#465=DESCRIPTIVE_REPRESENTATION_ITEM('Steel','Steel');
#466=PROPERTY_DEFINITION('material property','material name',#767);
#467=PROPERTY_DEFINITION('material property','density of part',#767);
#468=AXIS2_PLACEMENT_3D('',#622,#502,#503);
#469=AXIS2_PLACEMENT_3D('',#623,#504,#505);
#470=AXIS2_PLACEMENT_3D('',#624,#506,#507);
#471=AXIS2_PLACEMENT_3D('',#626,#508,#509);
#472=AXIS2_PLACEMENT_3D('',#629,#511,#512);
#473=AXIS2_PLACEMENT_3D('',#630,#513,#514);
#474=AXIS2_PLACEMENT_3D('',#639,#519,#520);
#475=AXIS2_PLACEMENT_3D('',#645,#524,#525);
#476=AXIS2_PLACEMENT_3D('',#651,#529,#530);
#477=AXIS2_PLACEMENT_3D('',#657,#534,#535);
#478=AXIS2_PLACEMENT_3D('',#663,#539,#540);
#479=AXIS2_PLACEMENT_3D('',#665,#541,#542);
#480=AXIS2_PLACEMENT_3D('',#668,#544,#545);
#481=AXIS2_PLACEMENT_3D('',#669,#546,#547);
#482=AXIS2_PLACEMENT_3D('',#678,#552,#553);
#483=AXIS2_PLACEMENT_3D('',#684,#557,#558);
#484=AXIS2_PLACEMENT_3D('',#690,#562,#563);
#485=AXIS2_PLACEMENT_3D('',#693,#566,#567);
#486=AXIS2_PLACEMENT_3D('',#699,#571,#572);
#487=AXIS2_PLACEMENT_3D('',#701,#573,#574);
#488=AXIS2_PLACEMENT_3D('',#704,#576,#577);
#489=AXIS2_PLACEMENT_3D('',#705,#578,#579);
#490=AXIS2_PLACEMENT_3D('',#714,#584,#585);
#491=AXIS2_PLACEMENT_3D('',#723,#590,#591);
#492=AXIS2_PLACEMENT_3D('',#726,#594,#595);
#493=AXIS2_PLACEMENT_3D('',#729,#598,#599);
#494=AXIS2_PLACEMENT_3D('',#735,#603,#604);
#495=AXIS2_PLACEMENT_3D('',#737,#605,#606);
#496=AXIS2_PLACEMENT_3D('',#739,#607,#608);
#497=AXIS2_PLACEMENT_3D('',#741,#610,#611);
#498=AXIS2_PLACEMENT_3D('',#744,#614,#615);
#499=AXIS2_PLACEMENT_3D('',#745,#616,#617);
#500=AXIS2_PLACEMENT_3D('',#746,#618,#619);
#501=AXIS2_PLACEMENT_3D('',#747,#620,#621);
#502=DIRECTION('axis',(0.,0.,1.));
#503=DIRECTION('refdir',(1.,0.,0.));
#504=DIRECTION('axis',(0.,0.,1.));
#505=DIRECTION('refdir',(1.,0.,0.));
#506=DIRECTION('center_axis',(0.,0.,1.));
#507=DIRECTION('ref_axis',(1.,0.,0.));
#508=DIRECTION('center_axis',(0.,0.,-1.));
#509=DIRECTION('ref_axis',(1.,0.,0.));
#510=DIRECTION('',(0.,0.,-1.));
#511=DIRECTION('center_axis',(0.,0.,1.));
#512=DIRECTION('ref_axis',(1.,0.,0.));
#513=DIRECTION('center_axis',(1.,0.,0.));
#514=DIRECTION('ref_axis',(0.,1.,0.));
#515=DIRECTION('',(0.,1.,0.));
#516=DIRECTION('',(0.,0.,1.));
#517=DIRECTION('',(0.,1.,0.));
#518=DIRECTION('',(0.,0.,1.));
#519=DIRECTION('center_axis',(0.,-1.,0.));
#520=DIRECTION('ref_axis',(1.,0.,-4.1086505480261E-32));
#521=DIRECTION('',(1.,0.,-4.1086505480261E-32));
#522=DIRECTION('',(1.,0.,-4.1086505480261E-32));
#523=DIRECTION('',(-1.37260040579937E-31,0.,1.));
#524=DIRECTION('center_axis',(0.,1.,0.));
#525=DIRECTION('ref_axis',(-1.,0.,0.));
#526=DIRECTION('',(-1.,0.,0.));
#527=DIRECTION('',(1.37260040579937E-31,0.,-1.));
#528=DIRECTION('',(-1.,0.,0.));
#529=DIRECTION('center_axis',(1.,1.64843804695643E-15,1.37260040579937E-31));
#530=DIRECTION('ref_axis',(1.37260040579937E-31,0.,-1.));
#531=DIRECTION('',(9.99200722162641E-16,-1.,-9.23289710481414E-17));
#532=DIRECTION('',(0.,1.38777878078145E-16,-1.));
#533=DIRECTION('',(-9.99200722162641E-16,1.,9.23289710481414E-17));
#534=DIRECTION('center_axis',(1.,1.64843804695643E-15,1.37260040579937E-31));
#535=DIRECTION('ref_axis',(1.37260040579937E-31,0.,-1.));
#536=DIRECTION('',(-9.99200722162641E-16,1.,9.23289710481414E-17));
#537=DIRECTION('',(0.,-1.38777878078145E-16,1.));
#538=DIRECTION('',(9.99200722162641E-16,-1.,-9.23289710481414E-17));
#539=DIRECTION('center_axis',(0.,0.,1.));
#540=DIRECTION('ref_axis',(1.,0.,0.));
#541=DIRECTION('center_axis',(0.,0.,-1.));
#542=DIRECTION('ref_axis',(1.,0.,0.));
#543=DIRECTION('',(0.,0.,-1.));
#544=DIRECTION('center_axis',(0.,0.,1.));
#545=DIRECTION('ref_axis',(1.,0.,0.));
#546=DIRECTION('center_axis',(1.,0.,0.));
#547=DIRECTION('ref_axis',(0.,1.,0.));
#548=DIRECTION('',(0.,-1.,0.));
#549=DIRECTION('',(0.,1.38777878078145E-16,-1.));
#550=DIRECTION('',(0.,1.,0.));
#551=DIRECTION('',(0.,0.,1.));
#552=DIRECTION('center_axis',(3.99680288865056E-15,-1.,0.));
#553=DIRECTION('ref_axis',(1.,3.99680288865056E-15,0.));
#554=DIRECTION('',(-1.,-3.99680288865056E-15,0.));
#555=DIRECTION('',(1.,3.99680288865056E-15,0.));
#556=DIRECTION('',(0.,0.,1.));
#557=DIRECTION('center_axis',(-1.,0.,0.));
#558=DIRECTION('ref_axis',(0.,-1.,0.));
#559=DIRECTION('',(0.,1.,0.));
#560=DIRECTION('',(0.,-1.,0.));
#561=DIRECTION('',(0.,-1.38777878078145E-16,1.));
#562=DIRECTION('center_axis',(9.99200722162641E-16,-1.,-1.38777878078145E-16));
#563=DIRECTION('ref_axis',(-1.,-9.99200722162641E-16,1.65489971508548E-16));
#564=DIRECTION('',(1.,1.64843804695643E-15,1.37260040579937E-31));
#565=DIRECTION('',(-1.,-9.99200722162641E-16,1.65489971508548E-16));
#566=DIRECTION('center_axis',(9.99200722162641E-16,-1.,-1.38777878078145E-16));
#567=DIRECTION('ref_axis',(-1.,-9.99200722162641E-16,1.65489971508548E-16));
#568=DIRECTION('',(-1.,-9.99200722162641E-16,1.65489971508548E-16));
#569=DIRECTION('',(0.,0.,-1.));
#570=DIRECTION('',(1.,1.64843804695643E-15,1.37260040579937E-31));
#571=DIRECTION('center_axis',(0.,0.,1.));
#572=DIRECTION('ref_axis',(1.,0.,0.));
#573=DIRECTION('center_axis',(0.,0.,-1.));
#574=DIRECTION('ref_axis',(1.,0.,0.));
#575=DIRECTION('',(0.,0.,-1.));
#576=DIRECTION('center_axis',(0.,0.,1.));
#577=DIRECTION('ref_axis',(1.,0.,0.));
#578=DIRECTION('center_axis',(1.,0.,0.));
#579=DIRECTION('ref_axis',(0.,1.,0.));
#580=DIRECTION('',(0.,1.,0.));
#581=DIRECTION('',(0.,0.,1.));
#582=DIRECTION('',(0.,1.,0.));
#583=DIRECTION('',(0.,-1.38777878078145E-16,1.));
#584=DIRECTION('center_axis',(-1.,0.,0.));
#585=DIRECTION('ref_axis',(0.,-1.,2.46519032881566E-32));
#586=DIRECTION('',(0.,-1.,2.46519032881566E-32));
#587=DIRECTION('',(0.,1.38777878078145E-16,-1.));
#588=DIRECTION('',(0.,-1.,2.46519032881566E-32));
#589=DIRECTION('',(0.,0.,1.));
#590=DIRECTION('center_axis',(-4.44089209850063E-15,1.,0.));
#591=DIRECTION('ref_axis',(-1.,-4.44089209850063E-15,0.));
#592=DIRECTION('',(-1.,-4.44089209850063E-15,0.));
#593=DIRECTION('',(-1.,-4.44089209850063E-15,0.));
#594=DIRECTION('center_axis',(-9.99200722162641E-16,1.,1.38777878078145E-16));
#595=DIRECTION('ref_axis',(1.,9.99200722162641E-16,-1.65489971508548E-16));
#596=DIRECTION('',(-1.,-9.50940492184288E-16,0.));
#597=DIRECTION('',(-1.,-9.50940492184288E-16,0.));
#598=DIRECTION('center_axis',(-9.99200722162641E-16,1.,1.38777878078145E-16));
#599=DIRECTION('ref_axis',(1.,9.99200722162641E-16,-1.65489971508548E-16));
#600=DIRECTION('',(-1.,-9.50940492184288E-16,0.));
#601=DIRECTION('',(0.,1.38777878078145E-16,-1.));
#602=DIRECTION('',(-1.,-9.50940492184288E-16,0.));
#603=DIRECTION('center_axis',(0.,0.,-1.));
#604=DIRECTION('ref_axis',(-0.911247386353041,0.411859443092848,0.));
#605=DIRECTION('center_axis',(0.,1.38777878078145E-16,-1.));
#606=DIRECTION('ref_axis',(-0.911247386353041,0.411859443092848,0.));
#607=DIRECTION('center_axis',(1.65489971508548E-16,-9.23289710481412E-17,
1.));
#608=DIRECTION('ref_axis',(-0.911247386353041,0.411859443092848,0.));
#609=DIRECTION('',(0.,0.,1.));
#610=DIRECTION('center_axis',(-1.,-9.41265811466856E-16,0.));
#611=DIRECTION('ref_axis',(0.,0.,1.));
#612=DIRECTION('',(-9.99200722162641E-16,1.,9.23289710481414E-17));
#613=DIRECTION('',(9.99200722162641E-16,-1.,-9.23289710481414E-17));
#614=DIRECTION('center_axis',(0.,1.38777878078145E-16,-1.));
#615=DIRECTION('ref_axis',(-1.,0.,0.));
#616=DIRECTION('center_axis',(1.65489971508548E-16,-9.23289710481412E-17,
1.));
#617=DIRECTION('ref_axis',(9.99200722162641E-16,-1.,-9.23289710481414E-17));
#618=DIRECTION('',(0.,0.,1.));
#619=DIRECTION('',(1.,0.,0.));
#620=DIRECTION('center_axis',(0.,0.,1.));
#621=DIRECTION('ref_axis',(1.,0.,0.));
#622=CARTESIAN_POINT('',(0.,0.,0.));
#623=CARTESIAN_POINT('',(0.,0.,0.));
#624=CARTESIAN_POINT('Origin',(50.4735173785152,16.8316318934421,-2.));
#625=CARTESIAN_POINT('',(49.4735173785152,16.8316318934421,2.77555756156289E-16));
#626=CARTESIAN_POINT('Origin',(50.4735173785152,16.8316318934421,2.77555756156289E-16));
#627=CARTESIAN_POINT('',(49.4735173785152,16.8316318934421,-2.));
#628=CARTESIAN_POINT('',(49.4735173785152,16.8316318934421,-2.));
#629=CARTESIAN_POINT('Origin',(50.4735173785152,16.8316318934421,-2.));
#630=CARTESIAN_POINT('Origin',(51.9735173785152,14.3316318934421,-2.));
#631=CARTESIAN_POINT('',(51.9735173785152,14.3316318934421,-2.));
#632=CARTESIAN_POINT('',(51.9735173785152,19.3316318934421,-2.));
#633=CARTESIAN_POINT('',(51.9735173785152,14.3316318934421,-2.));
#634=CARTESIAN_POINT('',(51.9735173785152,19.3316318934421,2.77555756156289E-16));
#635=CARTESIAN_POINT('',(51.9735173785152,19.3316318934421,-2.));
#636=CARTESIAN_POINT('',(51.9735173785152,14.3316318934421,2.77555756156289E-16));
#637=CARTESIAN_POINT('',(51.9735173785152,14.3316318934421,2.77555756156289E-16));
#638=CARTESIAN_POINT('',(51.9735173785152,14.3316318934421,-2.));
#639=CARTESIAN_POINT('Origin',(48.9735173785152,14.3316318934421,-2.));
#640=CARTESIAN_POINT('',(48.9735173785152,14.3316318934421,-2.));
#641=CARTESIAN_POINT('',(48.9735173785152,14.3316318934421,-2.));
#642=CARTESIAN_POINT('',(48.9735173785152,14.3316318934421,2.77555756156289E-16));
#643=CARTESIAN_POINT('',(48.9735173785152,14.3316318934421,2.77555756156289E-16));
#644=CARTESIAN_POINT('',(48.9735173785152,14.3316318934421,-0.999999999999999));
#645=CARTESIAN_POINT('Origin',(51.9735173785152,19.3316318934421,-2.));
#646=CARTESIAN_POINT('',(48.9735173785152,19.3316318934421,-2.));
#647=CARTESIAN_POINT('',(51.9735173785152,19.3316318934421,-2.));
#648=CARTESIAN_POINT('',(48.9735173785152,19.3316318934421,2.77555756156289E-16));
#649=CARTESIAN_POINT('',(48.9735173785152,19.3316318934421,-0.999999999999999));
#650=CARTESIAN_POINT('',(51.9735173785152,19.3316318934421,2.77555756156289E-16));
#651=CARTESIAN_POINT('Origin',(48.9735173785151,31.9444608974657,1.09796930355089E-15));
#652=CARTESIAN_POINT('',(48.9735173785152,1.94446089746569,-1.67189982789335E-15));
#653=CARTESIAN_POINT('',(48.9735173785151,16.9444608974657,-2.86965262171229E-16));
#654=CARTESIAN_POINT('',(48.9735173785152,1.94446089746569,-2.));
#655=CARTESIAN_POINT('',(48.9735173785152,1.94446089746569,-1.67189982789335E-15));
#656=CARTESIAN_POINT('',(48.9735173785151,16.9444608974657,-2.));
#657=CARTESIAN_POINT('Origin',(48.9735173785151,31.9444608974657,1.09796930355089E-15));
#658=CARTESIAN_POINT('',(48.9735173785151,31.9444608974657,-2.));
#659=CARTESIAN_POINT('',(48.9735173785151,16.9444608974657,-2.));
#660=CARTESIAN_POINT('',(48.9735173785151,31.9444608974657,1.09796930355089E-15));
#661=CARTESIAN_POINT('',(48.9735173785151,31.9444608974657,1.09796930355089E-15));
#662=CARTESIAN_POINT('',(48.9735173785151,16.9444608974657,-2.86965262171229E-16));
#663=CARTESIAN_POINT('Origin',(15.1057475078763,-0.555539102534373,-2.));
#664=CARTESIAN_POINT('',(14.1057475078763,-0.555539102534373,2.77555756156289E-16));
#665=CARTESIAN_POINT('Origin',(15.1057475078763,-0.555539102534373,2.77555756156289E-16));
#666=CARTESIAN_POINT('',(14.1057475078763,-0.555539102534373,-2.));
#667=CARTESIAN_POINT('',(14.1057475078763,-0.555539102534373,-2.));
#668=CARTESIAN_POINT('Origin',(15.1057475078763,-0.555539102534373,-2.));
#669=CARTESIAN_POINT('Origin',(17.6057475078763,-3.05553910253436,-2.));
#670=CARTESIAN_POINT('',(17.6057475078763,1.94446089746564,-2.));
#671=CARTESIAN_POINT('',(17.6057475078763,-3.05553910253436,-2.));
#672=CARTESIAN_POINT('',(17.6057475078763,1.94446089746564,-2.));
#673=CARTESIAN_POINT('',(17.6057475078763,1.94446089746564,2.77555756156289E-16));
#674=CARTESIAN_POINT('',(17.6057475078763,1.94446089746565,-1.));
#675=CARTESIAN_POINT('',(17.6057475078763,-3.05553910253436,2.77555756156289E-16));
#676=CARTESIAN_POINT('',(17.6057475078763,1.94446089746564,2.77555756156289E-16));
#677=CARTESIAN_POINT('',(17.6057475078763,-3.05553910253436,-2.));
#678=CARTESIAN_POINT('Origin',(12.6057475078763,-3.05553910253438,-2.));
#679=CARTESIAN_POINT('',(12.6057475078763,-3.05553910253438,-2.));
#680=CARTESIAN_POINT('',(17.6057475078763,-3.05553910253436,-2.));
#681=CARTESIAN_POINT('',(12.6057475078763,-3.05553910253438,2.77555756156289E-16));
#682=CARTESIAN_POINT('',(17.6057475078763,-3.05553910253436,2.77555756156289E-16));
#683=CARTESIAN_POINT('',(12.6057475078763,-3.05553910253438,-2.));
#684=CARTESIAN_POINT('Origin',(12.6057475078763,1.94446089746562,-2.));
#685=CARTESIAN_POINT('',(12.6057475078763,1.94446089746562,-2.));
#686=CARTESIAN_POINT('',(12.6057475078763,-3.05553910253438,-2.));
#687=CARTESIAN_POINT('',(12.6057475078763,1.94446089746562,2.77555756156289E-16));
#688=CARTESIAN_POINT('',(12.6057475078763,-3.05553910253438,2.77555756156289E-16));
#689=CARTESIAN_POINT('',(12.6057475078763,1.94446089746565,-1.));
#690=CARTESIAN_POINT('Origin',(46.2795173785152,1.94446089746568,-1.67189982789335E-15));
#691=CARTESIAN_POINT('',(46.2795173785152,1.94446089746568,-2.));
#692=CARTESIAN_POINT('',(21.7795173785152,1.94446089746566,2.38260447406607E-15));
#693=CARTESIAN_POINT('Origin',(46.2795173785152,1.94446089746568,-1.67189982789335E-15));
#694=CARTESIAN_POINT('',(-5.05529356512711,1.94446089746564,3.2653287756546E-15));
#695=CARTESIAN_POINT('',(21.7795173785152,1.94446089746566,2.38260447406607E-15));
#696=CARTESIAN_POINT('',(-5.05529356512708,1.9444608974656,-2.));
#697=CARTESIAN_POINT('',(-5.05529356512711,1.94446089746563,3.2653287756546E-15));
#698=CARTESIAN_POINT('',(46.2795173785152,1.94446089746568,-2.));
#699=CARTESIAN_POINT('Origin',(-0.83160175902981,34.4444608974656,-2.));
#700=CARTESIAN_POINT('',(-1.83160175902981,34.4444608974656,2.77555756156289E-16));
#701=CARTESIAN_POINT('Origin',(-0.83160175902981,34.4444608974656,2.77555756156289E-16));
#702=CARTESIAN_POINT('',(-1.83160175902981,34.4444608974656,-2.));
#703=CARTESIAN_POINT('',(-1.83160175902981,34.4444608974656,-2.));
#704=CARTESIAN_POINT('Origin',(-0.83160175902981,34.4444608974656,-2.));
#705=CARTESIAN_POINT('Origin',(1.66839824097019,31.9444608974657,-2.));
#706=CARTESIAN_POINT('',(1.66839824097019,31.9444608974657,-2.));
#707=CARTESIAN_POINT('',(1.66839824097019,36.9444608974657,-2.));
#708=CARTESIAN_POINT('',(1.66839824097019,31.9444608974657,-2.));
#709=CARTESIAN_POINT('',(1.66839824097019,36.9444608974657,2.77555756156289E-16));
#710=CARTESIAN_POINT('',(1.66839824097019,36.9444608974657,-2.));
#711=CARTESIAN_POINT('',(1.66839824097019,31.9444608974657,2.77555756156289E-16));
#712=CARTESIAN_POINT('',(1.66839824097019,31.9444608974657,2.77555756156289E-16));
#713=CARTESIAN_POINT('',(1.66839824097019,31.9444608974656,-0.999999999999995));
#714=CARTESIAN_POINT('Origin',(-3.33160175902981,36.9444608974656,-2.));
#715=CARTESIAN_POINT('',(-3.33160175902981,36.9444608974656,-2.));
#716=CARTESIAN_POINT('',(-3.33160175902981,31.9444608974656,-2.));
#717=CARTESIAN_POINT('',(-3.33160175902981,36.9444608974656,-2.));
#718=CARTESIAN_POINT('',(-3.33160175902981,31.9444608974656,2.77555756156289E-16));
#719=CARTESIAN_POINT('',(-3.33160175902981,31.9444608974656,-0.999999999999996));
#720=CARTESIAN_POINT('',(-3.33160175902981,36.9444608974656,2.77555756156289E-16));
#721=CARTESIAN_POINT('',(-3.33160175902981,36.9444608974656,2.77555756156289E-16));
#722=CARTESIAN_POINT('',(-3.33160175902981,36.9444608974656,-2.));
#723=CARTESIAN_POINT('Origin',(1.66839824097019,36.9444608974657,-2.));
#724=CARTESIAN_POINT('',(1.66839824097019,36.9444608974657,-2.));
#725=CARTESIAN_POINT('',(1.66839824097019,36.9444608974657,2.77555756156289E-16));
#726=CARTESIAN_POINT('Origin',(-2.72048262148487,31.9444608974656,9.20697790746973E-15));
#727=CARTESIAN_POINT('',(-2.72048262148487,31.9444608974656,9.20697790746973E-15));
#728=CARTESIAN_POINT('',(-2.72048262148487,31.9444608974656,-1.99999999999999));
#729=CARTESIAN_POINT('Origin',(-2.72048262148487,31.9444608974656,9.20697790746973E-15));
#730=CARTESIAN_POINT('',(-7.41448262148487,31.9444608974656,-1.99999999999999));
#731=CARTESIAN_POINT('',(-2.72048262148487,31.9444608974656,-1.99999999999999));
#732=CARTESIAN_POINT('',(-7.41448262148487,31.9444608974656,9.20697790746973E-15));
#733=CARTESIAN_POINT('',(-7.41448262148487,31.9444608974656,9.20697790746973E-15));
#734=CARTESIAN_POINT('',(-2.72048262148487,31.9444608974656,9.20697790746973E-15));
#735=CARTESIAN_POINT('Origin',(21.7795173785151,19.4445458340676,3.2653287756546E-15));
#736=CARTESIAN_POINT('',(-7.41448262148484,6.2509710656697,-1.99999999999999));
#737=CARTESIAN_POINT('Origin',(21.7795173785151,19.4445458340676,-2.));
#738=CARTESIAN_POINT('',(-7.41448262148485,6.2509710656697,3.2653287756546E-15));
#739=CARTESIAN_POINT('Origin',(21.7795173785151,19.4445458340676,3.76753903978819E-15));
#740=CARTESIAN_POINT('',(-7.41448262148484,6.2509710656697,3.2653287756546E-15));
#741=CARTESIAN_POINT('Origin',(-7.41448262148484,1.94446089746563,6.43710877602549E-15));
#742=CARTESIAN_POINT('',(-7.41448262148485,16.9444608974656,7.82204334174761E-15));
#743=CARTESIAN_POINT('',(-7.41448262148485,16.9444608974656,-1.99999999999999));
#744=CARTESIAN_POINT('Origin',(21.7795173785151,16.9444608974657,-2.));
#745=CARTESIAN_POINT('Origin',(21.7795173785151,16.9444608974657,3.76753903978819E-15));
#746=CARTESIAN_POINT('',(0.,0.,0.));
#747=CARTESIAN_POINT('Origin',(0.,0.,0.));
#748=UNCERTAINTY_MEASURE_WITH_UNIT(LENGTH_MEASURE(0.01),#754,
'DISTANCE_ACCURACY_VALUE',
'Maximum model space distance between geometric entities at asserted c
onnectivities');
#749=UNCERTAINTY_MEASURE_WITH_UNIT(LENGTH_MEASURE(0.01),#754,
'DISTANCE_ACCURACY_VALUE',
'Maximum model space distance between geometric entities at asserted c
onnectivities');
#750=UNCERTAINTY_MEASURE_WITH_UNIT(LENGTH_MEASURE(0.01),#754,
'DISTANCE_ACCURACY_VALUE',
'Maximum model space distance between geometric entities at asserted c
onnectivities');
#751=(
GEOMETRIC_REPRESENTATION_CONTEXT(3)
GLOBAL_UNCERTAINTY_ASSIGNED_CONTEXT((#748))
GLOBAL_UNIT_ASSIGNED_CONTEXT((#754,#756,#757))
REPRESENTATION_CONTEXT('','3D')
);
#752=(
GEOMETRIC_REPRESENTATION_CONTEXT(3)
GLOBAL_UNCERTAINTY_ASSIGNED_CONTEXT((#749))
GLOBAL_UNIT_ASSIGNED_CONTEXT((#754,#756,#757))
REPRESENTATION_CONTEXT('','3D')
);
#753=(
GEOMETRIC_REPRESENTATION_CONTEXT(3)
GLOBAL_UNCERTAINTY_ASSIGNED_CONTEXT((#750))
GLOBAL_UNIT_ASSIGNED_CONTEXT((#754,#756,#757))
REPRESENTATION_CONTEXT('','3D')
);
#754=(
LENGTH_UNIT()
NAMED_UNIT(*)
SI_UNIT(.MILLI.,.METRE.)
);
#755=(
LENGTH_UNIT()
NAMED_UNIT(*)
SI_UNIT($,.METRE.)
);
#756=(
NAMED_UNIT(*)
PLANE_ANGLE_UNIT()
SI_UNIT($,.RADIAN.)
);
#757=(
NAMED_UNIT(*)
SI_UNIT($,.STERADIAN.)
SOLID_ANGLE_UNIT()
);
#758=SHAPE_DEFINITION_REPRESENTATION(#760,#763);
#759=SHAPE_DEFINITION_REPRESENTATION(#761,#764);
#760=PRODUCT_DEFINITION_SHAPE('',$,#766);
#761=PRODUCT_DEFINITION_SHAPE('',$,#767);
#762=PRODUCT_DEFINITION_SHAPE($,$,#17);
#763=SHAPE_REPRESENTATION('',(#468,#500),#751);
#764=SHAPE_REPRESENTATION('',(#469),#752);
#765=PRODUCT_DEFINITION_CONTEXT('part definition',#773,'design');
#766=PRODUCT_DEFINITION('angle caliper','angle caliper v13',#768,#765);
#767=PRODUCT_DEFINITION('lid','lid',#769,#765);
#768=PRODUCT_DEFINITION_FORMATION('',$,#775);
#769=PRODUCT_DEFINITION_FORMATION('',$,#776);
#770=PRODUCT_RELATED_PRODUCT_CATEGORY('angle caliper v13',
'angle caliper v13',(#775));
#771=PRODUCT_RELATED_PRODUCT_CATEGORY('lid','lid',(#776));
#772=APPLICATION_PROTOCOL_DEFINITION('international standard',
'automotive_design',2009,#773);
#773=APPLICATION_CONTEXT(
'Core Data for Automotive Mechanical Design Process');
#774=PRODUCT_CONTEXT('part definition',#773,'mechanical');
#775=PRODUCT('angle caliper','angle caliper v13',$,(#774));
#776=PRODUCT('lid','lid',$,(#774));
#777=PRESENTATION_STYLE_ASSIGNMENT((#781));
#778=PRESENTATION_STYLE_ASSIGNMENT((#782));
#779=PRESENTATION_STYLE_ASSIGNMENT((#783));
#780=PRESENTATION_STYLE_ASSIGNMENT((NULL_STYLE(.NULL.)));
#781=SURFACE_STYLE_USAGE(.BOTH.,#784);
#782=SURFACE_STYLE_USAGE(.BOTH.,#785);
#783=SURFACE_STYLE_USAGE(.BOTH.,#786);
#784=SURFACE_SIDE_STYLE('',(#787));
#785=SURFACE_SIDE_STYLE('',(#788));
#786=SURFACE_SIDE_STYLE('',(#789));
#787=SURFACE_STYLE_FILL_AREA(#790);
#788=SURFACE_STYLE_FILL_AREA(#791);
#789=SURFACE_STYLE_FILL_AREA(#792);
#790=FILL_AREA_STYLE('Steel - Satin',(#793));
#791=FILL_AREA_STYLE('Aluminum - Polished',(#794));
#792=FILL_AREA_STYLE('Paint - Enamel Glossy (Red)',(#795));
#793=FILL_AREA_STYLE_COLOUR('Steel - Satin',#796);
#794=FILL_AREA_STYLE_COLOUR('Aluminum - Polished',#797);
#795=FILL_AREA_STYLE_COLOUR('Paint - Enamel Glossy (Red)',#798);
#796=COLOUR_RGB('Steel - Satin',0.627450980392157,0.627450980392157,0.627450980392157);
#797=COLOUR_RGB('Aluminum - Polished',0.96078431372549,0.96078431372549,
0.964705882352941);
#798=COLOUR_RGB('Paint - Enamel Glossy (Red)',0.768627450980392,0.207843137254902,
0.152941176470588);
ENDSEC;
END-ISO-10303-21;
