ISO-10303-21;
HEADER;
/* Generated by software containing ST-Developer
 * from STEP Tools, Inc. (www.steptools.com) 
 */

FILE_DESCRIPTION(
/* description */ (''),
/* implementation_level */ '2;1');

FILE_NAME(
/* name */ 'magnet cover_.step',
/* time_stamp */ '2026-09-12T20:30:46-06:00',
/* author */ (''),
/* organization */ (''),
/* preprocessor_version */ 'ST-DEVELOPER v20.2',
/* originating_system */ 'Autodesk Translation Framework v15.15.0.0',
/* authorisation */ '');

FILE_SCHEMA (('AUTOMOTIVE_DESIGN { 1 0 10303 214 3 1 1 }'));
ENDSEC;

DATA;
#10=MECHANICAL_DESIGN_GEOMETRIC_PRESENTATION_REPRESENTATION('',(#17),#100);
#11=ITEM_DEFINED_TRANSFORMATION($,$,#60,#66);
#12=(
REPRESENTATION_RELATIONSHIP($,$,#111,#110)
REPRESENTATION_RELATIONSHIP_WITH_TRANSFORMATION(#11)
SHAPE_REPRESENTATION_RELATIONSHIP()
);
#13=CONTEXT_DEPENDENT_SHAPE_REPRESENTATION(#12,#109);
#14=NEXT_ASSEMBLY_USAGE_OCCURRENCE('magnet cover:1','magnet cover:1',
'magnet cover:1',#113,#114,'magnet cover:1');
#15=SHAPE_REPRESENTATION_RELATIONSHIP('SRR','None',#111,#16);
#16=ADVANCED_BREP_SHAPE_REPRESENTATION('',(#18),#99);
#17=STYLED_ITEM('',(#124),#18);
#18=MANIFOLD_SOLID_BREP('Body1',#46);
#19=PLANE('',#64);
#20=PLANE('',#65);
#21=FACE_OUTER_BOUND('',#24,.T.);
#22=FACE_OUTER_BOUND('',#25,.T.);
#23=FACE_OUTER_BOUND('',#26,.T.);
#24=EDGE_LOOP('',(#36,#37,#38,#39));
#25=EDGE_LOOP('',(#40));
#26=EDGE_LOOP('',(#41));
#27=LINE('',#90,#28);
#28=VECTOR('',#75,3.);
#29=CIRCLE('',#62,3.);
#30=CIRCLE('',#63,3.);
#31=VERTEX_POINT('',#87);
#32=VERTEX_POINT('',#89);
#33=EDGE_CURVE('',#31,#31,#29,.T.);
#34=EDGE_CURVE('',#31,#32,#27,.T.);
#35=EDGE_CURVE('',#32,#32,#30,.T.);
#36=ORIENTED_EDGE('',*,*,#33,.F.);
#37=ORIENTED_EDGE('',*,*,#34,.T.);
#38=ORIENTED_EDGE('',*,*,#35,.T.);
#39=ORIENTED_EDGE('',*,*,#34,.F.);
#40=ORIENTED_EDGE('',*,*,#33,.T.);
#41=ORIENTED_EDGE('',*,*,#35,.F.);
#42=CYLINDRICAL_SURFACE('',#61,3.);
#43=ADVANCED_FACE('',(#21),#42,.T.);
#44=ADVANCED_FACE('',(#22),#19,.T.);
#45=ADVANCED_FACE('',(#23),#20,.F.);
#46=CLOSED_SHELL('',(#43,#44,#45));
#47=DERIVED_UNIT_ELEMENT(#49,1.);
#48=DERIVED_UNIT_ELEMENT(#102,-3.);
#49=(
MASS_UNIT()
NAMED_UNIT(*)
SI_UNIT(.KILO.,.GRAM.)
);
#50=DERIVED_UNIT((#47,#48));
#51=MEASURE_REPRESENTATION_ITEM('density measure',
POSITIVE_RATIO_MEASURE(7850.),#50);
#52=PROPERTY_DEFINITION_REPRESENTATION(#57,#54);
#53=PROPERTY_DEFINITION_REPRESENTATION(#58,#55);
#54=REPRESENTATION('material name',(#56),#99);
#55=REPRESENTATION('density',(#51),#99);
#56=DESCRIPTIVE_REPRESENTATION_ITEM('Steel','Steel');
#57=PROPERTY_DEFINITION('material property','material name',#114);
#58=PROPERTY_DEFINITION('material property','density of part',#114);
#59=AXIS2_PLACEMENT_3D('',#84,#67,#68);
#60=AXIS2_PLACEMENT_3D('',#85,#69,#70);
#61=AXIS2_PLACEMENT_3D('',#86,#71,#72);
#62=AXIS2_PLACEMENT_3D('',#88,#73,#74);
#63=AXIS2_PLACEMENT_3D('',#91,#76,#77);
#64=AXIS2_PLACEMENT_3D('',#92,#78,#79);
#65=AXIS2_PLACEMENT_3D('',#93,#80,#81);
#66=AXIS2_PLACEMENT_3D('',#94,#82,#83);
#67=DIRECTION('axis',(0.,0.,1.));
#68=DIRECTION('refdir',(1.,0.,0.));
#69=DIRECTION('axis',(0.,0.,1.));
#70=DIRECTION('refdir',(1.,0.,0.));
#71=DIRECTION('center_axis',(0.,-1.11022302462516E-15,1.));
#72=DIRECTION('ref_axis',(1.,4.34489795453759E-31,0.));
#73=DIRECTION('center_axis',(-3.4694469519536E-16,-1.12017067465972E-15,
1.));
#74=DIRECTION('ref_axis',(1.,4.9303806576313E-32,3.4694469519536E-16));
#75=DIRECTION('',(0.,1.11022302462516E-15,-1.));
#76=DIRECTION('center_axis',(-3.4694469519536E-16,-1.12017067465972E-15,
1.));
#77=DIRECTION('ref_axis',(1.,4.9303806576313E-32,3.4694469519536E-16));
#78=DIRECTION('center_axis',(-3.4694469519536E-16,-1.12017067465972E-15,
1.));
#79=DIRECTION('ref_axis',(1.,4.9303806576313E-32,3.4694469519536E-16));
#80=DIRECTION('center_axis',(-3.4694469519536E-16,-1.12017067465972E-15,
1.));
#81=DIRECTION('ref_axis',(1.,4.9303806576313E-32,3.4694469519536E-16));
#82=DIRECTION('',(1.66533453693774E-16,1.12017067465972E-15,1.));
#83=DIRECTION('',(1.,-4.93038065763132E-32,3.33066907387547E-16));
#84=CARTESIAN_POINT('',(0.,0.,0.));
#85=CARTESIAN_POINT('',(0.,0.,0.));
#86=CARTESIAN_POINT('Origin',(25.3961438565312,19.3186307706695,14.));
#87=CARTESIAN_POINT('',(22.3961438565312,19.3186307706695,16.));
#88=CARTESIAN_POINT('Origin',(25.3961438565312,19.3186307706695,16.));
#89=CARTESIAN_POINT('',(22.3961438565312,19.3186307706695,14.));
#90=CARTESIAN_POINT('',(22.3961438565312,19.3186307706695,14.));
#91=CARTESIAN_POINT('Origin',(25.3961438565312,19.3186307706695,14.));
#92=CARTESIAN_POINT('Origin',(25.3961438565312,19.3186307706695,16.));
#93=CARTESIAN_POINT('Origin',(25.3961438565312,19.3186307706695,14.));
#94=CARTESIAN_POINT('',(-3.6166264780161,0.125915063398048,1.77635683940025E-14));
#95=UNCERTAINTY_MEASURE_WITH_UNIT(LENGTH_MEASURE(0.01),#101,
'DISTANCE_ACCURACY_VALUE',
'Maximum model space distance between geometric entities at asserted c
onnectivities');
#96=UNCERTAINTY_MEASURE_WITH_UNIT(LENGTH_MEASURE(0.01),#101,
'DISTANCE_ACCURACY_VALUE',
'Maximum model space distance between geometric entities at asserted c
onnectivities');
#97=UNCERTAINTY_MEASURE_WITH_UNIT(LENGTH_MEASURE(0.01),#101,
'DISTANCE_ACCURACY_VALUE',
'Maximum model space distance between geometric entities at asserted c
onnectivities');
#98=(
GEOMETRIC_REPRESENTATION_CONTEXT(3)
GLOBAL_UNCERTAINTY_ASSIGNED_CONTEXT((#95))
GLOBAL_UNIT_ASSIGNED_CONTEXT((#101,#103,#104))
REPRESENTATION_CONTEXT('','3D')
);
#99=(
GEOMETRIC_REPRESENTATION_CONTEXT(3)
GLOBAL_UNCERTAINTY_ASSIGNED_CONTEXT((#96))
GLOBAL_UNIT_ASSIGNED_CONTEXT((#101,#103,#104))
REPRESENTATION_CONTEXT('','3D')
);
#100=(
GEOMETRIC_REPRESENTATION_CONTEXT(3)
GLOBAL_UNCERTAINTY_ASSIGNED_CONTEXT((#97))
GLOBAL_UNIT_ASSIGNED_CONTEXT((#101,#103,#104))
REPRESENTATION_CONTEXT('','3D')
);
#101=(
LENGTH_UNIT()
NAMED_UNIT(*)
SI_UNIT(.MILLI.,.METRE.)
);
#102=(
LENGTH_UNIT()
NAMED_UNIT(*)
SI_UNIT($,.METRE.)
);
#103=(
NAMED_UNIT(*)
PLANE_ANGLE_UNIT()
SI_UNIT($,.RADIAN.)
);
#104=(
NAMED_UNIT(*)
SI_UNIT($,.STERADIAN.)
SOLID_ANGLE_UNIT()
);
#105=SHAPE_DEFINITION_REPRESENTATION(#107,#110);
#106=SHAPE_DEFINITION_REPRESENTATION(#108,#111);
#107=PRODUCT_DEFINITION_SHAPE('',$,#113);
#108=PRODUCT_DEFINITION_SHAPE('',$,#114);
#109=PRODUCT_DEFINITION_SHAPE($,$,#14);
#110=SHAPE_REPRESENTATION('',(#59,#66),#98);
#111=SHAPE_REPRESENTATION('',(#60),#99);
#112=PRODUCT_DEFINITION_CONTEXT('part definition',#120,'design');
#113=PRODUCT_DEFINITION('angle caliper','angle caliper v13',#115,#112);
#114=PRODUCT_DEFINITION('magnet cover','magnet cover',#116,#112);
#115=PRODUCT_DEFINITION_FORMATION('',$,#122);
#116=PRODUCT_DEFINITION_FORMATION('',$,#123);
#117=PRODUCT_RELATED_PRODUCT_CATEGORY('angle caliper v13',
'angle caliper v13',(#122));
#118=PRODUCT_RELATED_PRODUCT_CATEGORY('magnet cover','magnet cover',(#123));
#119=APPLICATION_PROTOCOL_DEFINITION('international standard',
'automotive_design',2009,#120);
#120=APPLICATION_CONTEXT(
'Core Data for Automotive Mechanical Design Process');
#121=PRODUCT_CONTEXT('part definition',#120,'mechanical');
#122=PRODUCT('angle caliper','angle caliper v13',$,(#121));
#123=PRODUCT('magnet cover','magnet cover',$,(#121));
#124=PRESENTATION_STYLE_ASSIGNMENT((#127));
#125=PRESENTATION_STYLE_ASSIGNMENT((#128));
#126=PRESENTATION_STYLE_ASSIGNMENT((#129));
#127=SURFACE_STYLE_USAGE(.BOTH.,#130);
#128=SURFACE_STYLE_USAGE(.BOTH.,#131);
#129=SURFACE_STYLE_USAGE(.BOTH.,#132);
#130=SURFACE_SIDE_STYLE('',(#133));
#131=SURFACE_SIDE_STYLE('',(#134));
#132=SURFACE_SIDE_STYLE('',(#135));
#133=SURFACE_STYLE_FILL_AREA(#136);
#134=SURFACE_STYLE_FILL_AREA(#137);
#135=SURFACE_STYLE_FILL_AREA(#138);
#136=FILL_AREA_STYLE('Steel - Satin',(#139));
#137=FILL_AREA_STYLE('Aluminum - Polished',(#140));
#138=FILL_AREA_STYLE('Paint - Enamel Glossy (Red)',(#141));
#139=FILL_AREA_STYLE_COLOUR('Steel - Satin',#142);
#140=FILL_AREA_STYLE_COLOUR('Aluminum - Polished',#143);
#141=FILL_AREA_STYLE_COLOUR('Paint - Enamel Glossy (Red)',#144);
#142=COLOUR_RGB('Steel - Satin',0.627450980392157,0.627450980392157,0.627450980392157);
#143=COLOUR_RGB('Aluminum - Polished',0.96078431372549,0.96078431372549,
0.964705882352941);
#144=COLOUR_RGB('Paint - Enamel Glossy (Red)',0.768627450980392,0.207843137254902,
0.152941176470588);
ENDSEC;
END-ISO-10303-21;
