ISO-10303-21;
HEADER;
/* Generated by software containing ST-Developer
 * from STEP Tools, Inc. (www.steptools.com) 
 */

FILE_DESCRIPTION(
/* description */ (''),
/* implementation_level */ '2;1');

FILE_NAME(
/* name */ 'top cover.step',
/* time_stamp */ '2026-09-12T20:31:23-06:00',
/* author */ (''),
/* organization */ (''),
/* preprocessor_version */ 'ST-DEVELOPER v20.2',
/* originating_system */ 'Autodesk Translation Framework v15.15.0.0',
/* authorisation */ '');

FILE_SCHEMA (('AUTOMOTIVE_DESIGN { 1 0 10303 214 3 1 1 }'));
ENDSEC;

DATA;
#10=MECHANICAL_DESIGN_GEOMETRIC_PRESENTATION_REPRESENTATION('',(#17),#636);
#11=ITEM_DEFINED_TRANSFORMATION($,$,#326,#366);
#12=(
REPRESENTATION_RELATIONSHIP($,$,#647,#646)
REPRESENTATION_RELATIONSHIP_WITH_TRANSFORMATION(#11)
SHAPE_REPRESENTATION_RELATIONSHIP()
);
#13=CONTEXT_DEPENDENT_SHAPE_REPRESENTATION(#12,#645);
#14=NEXT_ASSEMBLY_USAGE_OCCURRENCE('top cover (1):1','top cover (1):1',
'top cover (1):1',#649,#650,'top cover (1):1');
#15=SHAPE_REPRESENTATION_RELATIONSHIP('SRR','None',#647,#16);
#16=ADVANCED_BREP_SHAPE_REPRESENTATION('',(#18),#635);
#17=STYLED_ITEM('',(#663),#18);
#18=MANIFOLD_SOLID_BREP('Body2',#312);
#19=TOROIDAL_SURFACE('',#352,33.4,0.5);
#20=FACE_BOUND('',#96,.T.);
#21=FACE_BOUND('',#98,.T.);
#22=FACE_BOUND('',#101,.T.);
#23=FACE_BOUND('',#103,.T.);
#24=FACE_BOUND('',#105,.T.);
#25=FACE_BOUND('',#110,.T.);
#26=B_SPLINE_CURVE_WITH_KNOTS('',3,(#487,#488,#489,#490,#491,#492),
 .UNSPECIFIED.,.F.,.F.,(4,2,4),(1.19114877969083,1.24592327895954,1.35967745025425),
 .UNSPECIFIED.);
#27=B_SPLINE_CURVE_WITH_KNOTS('',3,(#495,#496,#497,#498,#499,#500),
 .UNSPECIFIED.,.F.,.F.,(4,2,4),(1.3583565659552,1.47213953867076,1.52691734546076),
 .UNSPECIFIED.);
#28=B_SPLINE_CURVE_WITH_KNOTS('',3,(#543,#544,#545,#546,#547,#548,#549,
#550,#551,#552,#553,#554,#555,#556,#557,#558,#559,#560),.UNSPECIFIED.,.F.,
 .F.,(4,2,2,2,2,2,2,2,4),(0.452252862277252,0.56592080547095,0.679588748664647,
0.792672795263387,0.905756841862128,1.01901504506737,1.1322732482726,1.24576709921741,
1.35926095016222),.UNSPECIFIED.);
#29=B_SPLINE_CURVE_WITH_KNOTS('',3,(#563,#564,#565,#566,#567,#568,#569,
#570,#571,#572,#573,#574,#575,#576,#577,#578,#579,#580,#581),
 .UNSPECIFIED.,.F.,.F.,(4,2,2,2,3,2,2,2,4),(1.35809290686126,1.47160517906493,
1.58511745126859,1.69838271951016,1.81164798775173,1.9247320641608,2.03781614056987,
2.15150953520398,2.2652029298381),.UNSPECIFIED.);
#30=B_SPLINE_CURVE_WITH_KNOTS('',3,(#587,#588,#589,#590,#591,#592,#593,
#594,#595,#596,#597,#598,#599,#600,#601,#602),.UNSPECIFIED.,.F.,.F.,(4,
2,2,2,2,2,2,4),(0.45228240986917,0.565839772448818,0.679397135028466,0.792688573906404,
0.905980012784341,1.01907456022458,1.13216910766482,1.19114877969083),
 .UNSPECIFIED.);
#31=B_SPLINE_CURVE_WITH_KNOTS('',3,(#604,#605,#606,#607,#608,#609,#610,
#611,#612,#613,#614,#615,#616,#617,#618,#619,#620),.UNSPECIFIED.,.F.,.F.,
(4,2,2,3,2,2,2,4),(1.52691734546076,1.58592251138632,1.69901711250735,1.81211171362838,
1.92541117001675,2.03871062640512,2.15228883307327,2.26586703974141),
 .UNSPECIFIED.);
#32=LINE('',#476,#47);
#33=LINE('',#480,#48);
#34=LINE('',#506,#49);
#35=LINE('',#507,#50);
#36=LINE('',#514,#51);
#37=LINE('',#527,#52);
#38=LINE('',#528,#53);
#39=LINE('',#534,#54);
#40=LINE('',#535,#55);
#41=LINE('',#537,#56);
#42=LINE('',#584,#57);
#43=LINE('',#623,#58);
#44=LINE('',#624,#59);
#45=LINE('',#626,#60);
#46=LINE('',#628,#61);
#47=VECTOR('',#381,5.);
#48=VECTOR('',#386,3.);
#49=VECTOR('',#399,10.);
#50=VECTOR('',#400,10.);
#51=VECTOR('',#409,33.);
#52=VECTOR('',#424,10.);
#53=VECTOR('',#425,10.);
#54=VECTOR('',#434,10.);
#55=VECTOR('',#435,10.);
#56=VECTOR('',#438,10.);
#57=VECTOR('',#447,32.0368545767106);
#58=VECTOR('',#454,10.);
#59=VECTOR('',#455,10.);
#60=VECTOR('',#458,10.);
#61=VECTOR('',#461,10.);
#62=CYLINDRICAL_SURFACE('',#331,5.);
#63=CYLINDRICAL_SURFACE('',#333,3.);
#64=CYLINDRICAL_SURFACE('',#335,32.0368545767106);
#65=CYLINDRICAL_SURFACE('',#342,33.);
#66=CYLINDRICAL_SURFACE('',#356,34.0368545767106);
#67=CYLINDRICAL_SURFACE('',#359,32.0368545767106);
#68=CYLINDRICAL_SURFACE('',#362,3.);
#69=CYLINDRICAL_SURFACE('',#364,3.);
#70=FACE_OUTER_BOUND('',#90,.T.);
#71=FACE_OUTER_BOUND('',#91,.T.);
#72=FACE_OUTER_BOUND('',#92,.T.);
#73=FACE_OUTER_BOUND('',#93,.T.);
#74=FACE_OUTER_BOUND('',#94,.T.);
#75=FACE_OUTER_BOUND('',#95,.T.);
#76=FACE_OUTER_BOUND('',#97,.T.);
#77=FACE_OUTER_BOUND('',#99,.T.);
#78=FACE_OUTER_BOUND('',#100,.T.);
#79=FACE_OUTER_BOUND('',#102,.T.);
#80=FACE_OUTER_BOUND('',#104,.T.);
#81=FACE_OUTER_BOUND('',#106,.T.);
#82=FACE_OUTER_BOUND('',#107,.T.);
#83=FACE_OUTER_BOUND('',#108,.T.);
#84=FACE_OUTER_BOUND('',#109,.T.);
#85=FACE_OUTER_BOUND('',#111,.T.);
#86=FACE_OUTER_BOUND('',#112,.T.);
#87=FACE_OUTER_BOUND('',#113,.T.);
#88=FACE_OUTER_BOUND('',#114,.T.);
#89=FACE_OUTER_BOUND('',#115,.T.);
#90=EDGE_LOOP('',(#201));
#91=EDGE_LOOP('',(#202));
#92=EDGE_LOOP('',(#203,#204,#205,#206));
#93=EDGE_LOOP('',(#207,#208,#209,#210));
#94=EDGE_LOOP('',(#211,#212,#213,#214));
#95=EDGE_LOOP('',(#215,#216,#217));
#96=EDGE_LOOP('',(#218));
#97=EDGE_LOOP('',(#219,#220));
#98=EDGE_LOOP('',(#221));
#99=EDGE_LOOP('',(#222,#223,#224,#225));
#100=EDGE_LOOP('',(#226));
#101=EDGE_LOOP('',(#227));
#102=EDGE_LOOP('',(#228));
#103=EDGE_LOOP('',(#229));
#104=EDGE_LOOP('',(#230,#231,#232));
#105=EDGE_LOOP('',(#233));
#106=EDGE_LOOP('',(#234,#235,#236,#237));
#107=EDGE_LOOP('',(#238,#239,#240,#241));
#108=EDGE_LOOP('',(#242,#243,#244,#245));
#109=EDGE_LOOP('',(#246,#247,#248,#249));
#110=EDGE_LOOP('',(#250,#251,#252,#253));
#111=EDGE_LOOP('',(#254,#255,#256,#257,#258,#259,#260,#261));
#112=EDGE_LOOP('',(#262,#263,#264,#265,#266));
#113=EDGE_LOOP('',(#267,#268,#269,#270));
#114=EDGE_LOOP('',(#271,#272,#273,#274,#275));
#115=EDGE_LOOP('',(#276,#277,#278,#279,#280));
#116=CIRCLE('',#328,3.);
#117=CIRCLE('',#330,5.);
#118=CIRCLE('',#332,5.);
#119=CIRCLE('',#334,3.);
#120=CIRCLE('',#336,32.0368545767106);
#121=CIRCLE('',#337,32.0368545767106);
#122=CIRCLE('',#339,34.0368545767106);
#123=CIRCLE('',#341,32.0368545767106);
#124=CIRCLE('',#343,33.);
#125=CIRCLE('',#344,33.);
#126=CIRCLE('',#346,32.0368545767106);
#127=CIRCLE('',#348,32.9);
#128=CIRCLE('',#350,34.0368545767106);
#129=CIRCLE('',#351,33.4);
#130=CIRCLE('',#353,0.5);
#131=CIRCLE('',#357,34.0368545767106);
#132=CIRCLE('',#358,34.0368545767106);
#133=CIRCLE('',#360,32.0368545767106);
#134=CIRCLE('',#361,32.0368545767106);
#135=VERTEX_POINT('',#469);
#136=VERTEX_POINT('',#472);
#137=VERTEX_POINT('',#475);
#138=VERTEX_POINT('',#479);
#139=VERTEX_POINT('',#483);
#140=VERTEX_POINT('',#484);
#141=VERTEX_POINT('',#486);
#142=VERTEX_POINT('',#493);
#143=VERTEX_POINT('',#502);
#144=VERTEX_POINT('',#503);
#145=VERTEX_POINT('',#505);
#146=VERTEX_POINT('',#511);
#147=VERTEX_POINT('',#513);
#148=VERTEX_POINT('',#517);
#149=VERTEX_POINT('',#520);
#150=VERTEX_POINT('',#523);
#151=VERTEX_POINT('',#524);
#152=VERTEX_POINT('',#526);
#153=VERTEX_POINT('',#529);
#154=VERTEX_POINT('',#539);
#155=VERTEX_POINT('',#540);
#156=VERTEX_POINT('',#542);
#157=VERTEX_POINT('',#561);
#158=VERTEX_POINT('',#583);
#159=VERTEX_POINT('',#585);
#160=VERTEX_POINT('',#603);
#161=EDGE_CURVE('',#135,#135,#116,.T.);
#162=EDGE_CURVE('',#136,#136,#117,.T.);
#163=EDGE_CURVE('',#136,#137,#32,.T.);
#164=EDGE_CURVE('',#137,#137,#118,.T.);
#165=EDGE_CURVE('',#135,#138,#33,.T.);
#166=EDGE_CURVE('',#138,#138,#119,.T.);
#167=EDGE_CURVE('',#139,#140,#120,.T.);
#168=EDGE_CURVE('',#139,#141,#26,.T.);
#169=EDGE_CURVE('',#141,#142,#121,.T.);
#170=EDGE_CURVE('',#142,#140,#27,.T.);
#171=EDGE_CURVE('',#143,#144,#122,.T.);
#172=EDGE_CURVE('',#144,#145,#34,.T.);
#173=EDGE_CURVE('',#145,#143,#35,.T.);
#174=EDGE_CURVE('',#140,#139,#123,.T.);
#175=EDGE_CURVE('',#146,#146,#124,.T.);
#176=EDGE_CURVE('',#146,#147,#36,.T.);
#177=EDGE_CURVE('',#147,#147,#125,.T.);
#178=EDGE_CURVE('',#148,#148,#126,.T.);
#179=EDGE_CURVE('',#149,#149,#127,.T.);
#180=EDGE_CURVE('',#150,#151,#128,.T.);
#181=EDGE_CURVE('',#152,#151,#37,.T.);
#182=EDGE_CURVE('',#152,#150,#38,.T.);
#183=EDGE_CURVE('',#153,#153,#129,.T.);
#184=EDGE_CURVE('',#153,#149,#130,.T.);
#185=EDGE_CURVE('',#152,#145,#39,.T.);
#186=EDGE_CURVE('',#144,#150,#40,.T.);
#187=EDGE_CURVE('',#143,#151,#41,.T.);
#188=EDGE_CURVE('',#154,#155,#131,.T.);
#189=EDGE_CURVE('',#155,#156,#28,.T.);
#190=EDGE_CURVE('',#156,#157,#132,.T.);
#191=EDGE_CURVE('',#157,#154,#29,.T.);
#192=EDGE_CURVE('',#148,#158,#42,.T.);
#193=EDGE_CURVE('',#158,#159,#133,.T.);
#194=EDGE_CURVE('',#159,#139,#30,.T.);
#195=EDGE_CURVE('',#140,#160,#31,.T.);
#196=EDGE_CURVE('',#160,#158,#134,.T.);
#197=EDGE_CURVE('',#142,#154,#43,.T.);
#198=EDGE_CURVE('',#160,#157,#44,.T.);
#199=EDGE_CURVE('',#141,#155,#45,.T.);
#200=EDGE_CURVE('',#159,#156,#46,.T.);
#201=ORIENTED_EDGE('',*,*,#161,.T.);
#202=ORIENTED_EDGE('',*,*,#162,.T.);
#203=ORIENTED_EDGE('',*,*,#162,.F.);
#204=ORIENTED_EDGE('',*,*,#163,.T.);
#205=ORIENTED_EDGE('',*,*,#164,.F.);
#206=ORIENTED_EDGE('',*,*,#163,.F.);
#207=ORIENTED_EDGE('',*,*,#161,.F.);
#208=ORIENTED_EDGE('',*,*,#165,.T.);
#209=ORIENTED_EDGE('',*,*,#166,.F.);
#210=ORIENTED_EDGE('',*,*,#165,.F.);
#211=ORIENTED_EDGE('',*,*,#167,.F.);
#212=ORIENTED_EDGE('',*,*,#168,.T.);
#213=ORIENTED_EDGE('',*,*,#169,.T.);
#214=ORIENTED_EDGE('',*,*,#170,.T.);
#215=ORIENTED_EDGE('',*,*,#171,.T.);
#216=ORIENTED_EDGE('',*,*,#172,.T.);
#217=ORIENTED_EDGE('',*,*,#173,.T.);
#218=ORIENTED_EDGE('',*,*,#166,.T.);
#219=ORIENTED_EDGE('',*,*,#167,.T.);
#220=ORIENTED_EDGE('',*,*,#174,.T.);
#221=ORIENTED_EDGE('',*,*,#164,.T.);
#222=ORIENTED_EDGE('',*,*,#175,.T.);
#223=ORIENTED_EDGE('',*,*,#176,.T.);
#224=ORIENTED_EDGE('',*,*,#177,.T.);
#225=ORIENTED_EDGE('',*,*,#176,.F.);
#226=ORIENTED_EDGE('',*,*,#177,.F.);
#227=ORIENTED_EDGE('',*,*,#178,.F.);
#228=ORIENTED_EDGE('',*,*,#175,.F.);
#229=ORIENTED_EDGE('',*,*,#179,.T.);
#230=ORIENTED_EDGE('',*,*,#180,.T.);
#231=ORIENTED_EDGE('',*,*,#181,.F.);
#232=ORIENTED_EDGE('',*,*,#182,.T.);
#233=ORIENTED_EDGE('',*,*,#183,.F.);
#234=ORIENTED_EDGE('',*,*,#183,.T.);
#235=ORIENTED_EDGE('',*,*,#184,.T.);
#236=ORIENTED_EDGE('',*,*,#179,.F.);
#237=ORIENTED_EDGE('',*,*,#184,.F.);
#238=ORIENTED_EDGE('',*,*,#182,.F.);
#239=ORIENTED_EDGE('',*,*,#185,.T.);
#240=ORIENTED_EDGE('',*,*,#172,.F.);
#241=ORIENTED_EDGE('',*,*,#186,.T.);
#242=ORIENTED_EDGE('',*,*,#181,.T.);
#243=ORIENTED_EDGE('',*,*,#187,.F.);
#244=ORIENTED_EDGE('',*,*,#173,.F.);
#245=ORIENTED_EDGE('',*,*,#185,.F.);
#246=ORIENTED_EDGE('',*,*,#187,.T.);
#247=ORIENTED_EDGE('',*,*,#180,.F.);
#248=ORIENTED_EDGE('',*,*,#186,.F.);
#249=ORIENTED_EDGE('',*,*,#171,.F.);
#250=ORIENTED_EDGE('',*,*,#188,.T.);
#251=ORIENTED_EDGE('',*,*,#189,.T.);
#252=ORIENTED_EDGE('',*,*,#190,.T.);
#253=ORIENTED_EDGE('',*,*,#191,.T.);
#254=ORIENTED_EDGE('',*,*,#178,.T.);
#255=ORIENTED_EDGE('',*,*,#192,.T.);
#256=ORIENTED_EDGE('',*,*,#193,.T.);
#257=ORIENTED_EDGE('',*,*,#194,.T.);
#258=ORIENTED_EDGE('',*,*,#174,.F.);
#259=ORIENTED_EDGE('',*,*,#195,.T.);
#260=ORIENTED_EDGE('',*,*,#196,.T.);
#261=ORIENTED_EDGE('',*,*,#192,.F.);
#262=ORIENTED_EDGE('',*,*,#195,.F.);
#263=ORIENTED_EDGE('',*,*,#170,.F.);
#264=ORIENTED_EDGE('',*,*,#197,.T.);
#265=ORIENTED_EDGE('',*,*,#191,.F.);
#266=ORIENTED_EDGE('',*,*,#198,.F.);
#267=ORIENTED_EDGE('',*,*,#169,.F.);
#268=ORIENTED_EDGE('',*,*,#199,.T.);
#269=ORIENTED_EDGE('',*,*,#188,.F.);
#270=ORIENTED_EDGE('',*,*,#197,.F.);
#271=ORIENTED_EDGE('',*,*,#168,.F.);
#272=ORIENTED_EDGE('',*,*,#194,.F.);
#273=ORIENTED_EDGE('',*,*,#200,.T.);
#274=ORIENTED_EDGE('',*,*,#189,.F.);
#275=ORIENTED_EDGE('',*,*,#199,.F.);
#276=ORIENTED_EDGE('',*,*,#196,.F.);
#277=ORIENTED_EDGE('',*,*,#198,.T.);
#278=ORIENTED_EDGE('',*,*,#190,.F.);
#279=ORIENTED_EDGE('',*,*,#200,.F.);
#280=ORIENTED_EDGE('',*,*,#193,.F.);
#281=PLANE('',#327);
#282=PLANE('',#329);
#283=PLANE('',#338);
#284=PLANE('',#340);
#285=PLANE('',#345);
#286=PLANE('',#347);
#287=PLANE('',#349);
#288=PLANE('',#354);
#289=PLANE('',#355);
#290=PLANE('',#363);
#291=PLANE('',#365);
#292=ADVANCED_FACE('',(#70),#281,.F.);
#293=ADVANCED_FACE('',(#71),#282,.T.);
#294=ADVANCED_FACE('',(#72),#62,.T.);
#295=ADVANCED_FACE('',(#73),#63,.F.);
#296=ADVANCED_FACE('',(#74),#64,.T.);
#297=ADVANCED_FACE('',(#75,#20),#283,.T.);
#298=ADVANCED_FACE('',(#76,#21),#284,.F.);
#299=ADVANCED_FACE('',(#77),#65,.F.);
#300=ADVANCED_FACE('',(#78,#22),#285,.T.);
#301=ADVANCED_FACE('',(#79,#23),#286,.F.);
#302=ADVANCED_FACE('',(#80,#24),#287,.T.);
#303=ADVANCED_FACE('',(#81),#19,.T.);
#304=ADVANCED_FACE('',(#82),#288,.T.);
#305=ADVANCED_FACE('',(#83),#289,.T.);
#306=ADVANCED_FACE('',(#84,#25),#66,.T.);
#307=ADVANCED_FACE('',(#85),#67,.F.);
#308=ADVANCED_FACE('',(#86),#68,.F.);
#309=ADVANCED_FACE('',(#87),#290,.F.);
#310=ADVANCED_FACE('',(#88),#69,.F.);
#311=ADVANCED_FACE('',(#89),#291,.F.);
#312=CLOSED_SHELL('',(#292,#293,#294,#295,#296,#297,#298,#299,#300,#301,
#302,#303,#304,#305,#306,#307,#308,#309,#310,#311));
#313=DERIVED_UNIT_ELEMENT(#315,1.);
#314=DERIVED_UNIT_ELEMENT(#638,-3.);
#315=(
MASS_UNIT()
NAMED_UNIT(*)
SI_UNIT(.KILO.,.GRAM.)
);
#316=DERIVED_UNIT((#313,#314));
#317=MEASURE_REPRESENTATION_ITEM('density measure',
POSITIVE_RATIO_MEASURE(7850.),#316);
#318=PROPERTY_DEFINITION_REPRESENTATION(#323,#320);
#319=PROPERTY_DEFINITION_REPRESENTATION(#324,#321);
#320=REPRESENTATION('material name',(#322),#635);
#321=REPRESENTATION('density',(#317),#635);
#322=DESCRIPTIVE_REPRESENTATION_ITEM('Steel','Steel');
#323=PROPERTY_DEFINITION('material property','material name',#650);
#324=PROPERTY_DEFINITION('material property','density of part',#650);
#325=AXIS2_PLACEMENT_3D('',#466,#367,#368);
#326=AXIS2_PLACEMENT_3D('',#467,#369,#370);
#327=AXIS2_PLACEMENT_3D('',#468,#371,#372);
#328=AXIS2_PLACEMENT_3D('',#470,#373,#374);
#329=AXIS2_PLACEMENT_3D('',#471,#375,#376);
#330=AXIS2_PLACEMENT_3D('',#473,#377,#378);
#331=AXIS2_PLACEMENT_3D('',#474,#379,#380);
#332=AXIS2_PLACEMENT_3D('',#477,#382,#383);
#333=AXIS2_PLACEMENT_3D('',#478,#384,#385);
#334=AXIS2_PLACEMENT_3D('',#481,#387,#388);
#335=AXIS2_PLACEMENT_3D('',#482,#389,#390);
#336=AXIS2_PLACEMENT_3D('',#485,#391,#392);
#337=AXIS2_PLACEMENT_3D('',#494,#393,#394);
#338=AXIS2_PLACEMENT_3D('',#501,#395,#396);
#339=AXIS2_PLACEMENT_3D('',#504,#397,#398);
#340=AXIS2_PLACEMENT_3D('',#508,#401,#402);
#341=AXIS2_PLACEMENT_3D('',#509,#403,#404);
#342=AXIS2_PLACEMENT_3D('',#510,#405,#406);
#343=AXIS2_PLACEMENT_3D('',#512,#407,#408);
#344=AXIS2_PLACEMENT_3D('',#515,#410,#411);
#345=AXIS2_PLACEMENT_3D('',#516,#412,#413);
#346=AXIS2_PLACEMENT_3D('',#518,#414,#415);
#347=AXIS2_PLACEMENT_3D('',#519,#416,#417);
#348=AXIS2_PLACEMENT_3D('',#521,#418,#419);
#349=AXIS2_PLACEMENT_3D('',#522,#420,#421);
#350=AXIS2_PLACEMENT_3D('',#525,#422,#423);
#351=AXIS2_PLACEMENT_3D('',#530,#426,#427);
#352=AXIS2_PLACEMENT_3D('',#531,#428,#429);
#353=AXIS2_PLACEMENT_3D('',#532,#430,#431);
#354=AXIS2_PLACEMENT_3D('',#533,#432,#433);
#355=AXIS2_PLACEMENT_3D('',#536,#436,#437);
#356=AXIS2_PLACEMENT_3D('',#538,#439,#440);
#357=AXIS2_PLACEMENT_3D('',#541,#441,#442);
#358=AXIS2_PLACEMENT_3D('',#562,#443,#444);
#359=AXIS2_PLACEMENT_3D('',#582,#445,#446);
#360=AXIS2_PLACEMENT_3D('',#586,#448,#449);
#361=AXIS2_PLACEMENT_3D('',#621,#450,#451);
#362=AXIS2_PLACEMENT_3D('',#622,#452,#453);
#363=AXIS2_PLACEMENT_3D('',#625,#456,#457);
#364=AXIS2_PLACEMENT_3D('',#627,#459,#460);
#365=AXIS2_PLACEMENT_3D('',#629,#462,#463);
#366=AXIS2_PLACEMENT_3D('',#630,#464,#465);
#367=DIRECTION('axis',(0.,0.,1.));
#368=DIRECTION('refdir',(1.,0.,0.));
#369=DIRECTION('axis',(0.,0.,1.));
#370=DIRECTION('refdir',(1.,0.,0.));
#371=DIRECTION('center_axis',(0.,0.,-1.));
#372=DIRECTION('ref_axis',(1.,0.,0.));
#373=DIRECTION('center_axis',(0.,0.,1.));
#374=DIRECTION('ref_axis',(1.,0.,0.));
#375=DIRECTION('center_axis',(0.,0.,-1.));
#376=DIRECTION('ref_axis',(1.,0.,0.));
#377=DIRECTION('center_axis',(0.,0.,-1.));
#378=DIRECTION('ref_axis',(1.,0.,0.));
#379=DIRECTION('center_axis',(0.,0.,-1.));
#380=DIRECTION('ref_axis',(1.,0.,0.));
#381=DIRECTION('',(0.,0.,1.));
#382=DIRECTION('center_axis',(0.,0.,1.));
#383=DIRECTION('ref_axis',(1.,0.,0.));
#384=DIRECTION('center_axis',(0.,0.,1.));
#385=DIRECTION('ref_axis',(1.,0.,0.));
#386=DIRECTION('',(0.,0.,1.));
#387=DIRECTION('center_axis',(0.,0.,-1.));
#388=DIRECTION('ref_axis',(1.,0.,0.));
#389=DIRECTION('center_axis',(0.,0.,-1.));
#390=DIRECTION('ref_axis',(-0.999999437069515,0.00106106580979473,0.));
#391=DIRECTION('center_axis',(0.,0.,-1.));
#392=DIRECTION('ref_axis',(1.,0.,0.));
#393=DIRECTION('center_axis',(8.71098065475134E-15,1.1207970652407E-14,
-1.));
#394=DIRECTION('ref_axis',(1.,0.,0.));
#395=DIRECTION('center_axis',(0.,0.,1.));
#396=DIRECTION('ref_axis',(-1.,0.,0.));
#397=DIRECTION('center_axis',(0.,0.,1.));
#398=DIRECTION('ref_axis',(-1.,0.,0.));
#399=DIRECTION('',(0.,1.,0.));
#400=DIRECTION('',(-0.322215453110584,-0.946666362440718,0.));
#401=DIRECTION('center_axis',(0.,0.,1.));
#402=DIRECTION('ref_axis',(-1.,0.,0.));
#403=DIRECTION('center_axis',(0.,0.,-1.));
#404=DIRECTION('ref_axis',(1.,0.,0.));
#405=DIRECTION('center_axis',(0.,0.,1.));
#406=DIRECTION('ref_axis',(1.,0.,0.));
#407=DIRECTION('center_axis',(0.,0.,-1.));
#408=DIRECTION('ref_axis',(1.,0.,0.));
#409=DIRECTION('',(0.,0.,1.));
#410=DIRECTION('center_axis',(0.,0.,1.));
#411=DIRECTION('ref_axis',(1.,0.,0.));
#412=DIRECTION('center_axis',(-1.79406951696154E-16,1.17544375104669E-17,
-1.));
#413=DIRECTION('ref_axis',(1.,5.90328869337435E-31,-1.79406951696154E-16));
#414=DIRECTION('center_axis',(0.,0.,-1.));
#415=DIRECTION('ref_axis',(1.,0.,0.));
#416=DIRECTION('center_axis',(0.,0.,-1.));
#417=DIRECTION('ref_axis',(1.,0.,0.));
#418=DIRECTION('center_axis',(0.,0.,-1.));
#419=DIRECTION('ref_axis',(1.,0.,0.));
#420=DIRECTION('center_axis',(0.,0.,-1.));
#421=DIRECTION('ref_axis',(1.,0.,0.));
#422=DIRECTION('center_axis',(0.,0.,-1.));
#423=DIRECTION('ref_axis',(-1.,0.,0.));
#424=DIRECTION('',(-0.322215453110584,-0.946666362440718,0.));
#425=DIRECTION('',(0.,-1.,0.));
#426=DIRECTION('center_axis',(0.,0.,-1.));
#427=DIRECTION('ref_axis',(1.,0.,0.));
#428=DIRECTION('center_axis',(0.,0.,1.));
#429=DIRECTION('ref_axis',(1.,0.,0.));
#430=DIRECTION('center_axis',(1.30999766917423E-16,-1.,0.));
#431=DIRECTION('ref_axis',(-1.,-1.30999766917423E-16,0.));
#432=DIRECTION('center_axis',(1.,0.,0.));
#433=DIRECTION('ref_axis',(0.,1.,0.));
#434=DIRECTION('',(0.,0.,1.));
#435=DIRECTION('',(0.,0.,-1.));
#436=DIRECTION('center_axis',(-0.946666362440718,0.322215453110584,0.));
#437=DIRECTION('ref_axis',(-0.322215453110584,-0.946666362440718,0.));
#438=DIRECTION('',(0.,0.,-1.));
#439=DIRECTION('center_axis',(0.,0.,-1.));
#440=DIRECTION('ref_axis',(-1.,0.,0.));
#441=DIRECTION('center_axis',(-8.71098065475134E-15,-1.1207970652407E-14,
1.));
#442=DIRECTION('ref_axis',(-1.,0.,0.));
#443=DIRECTION('center_axis',(8.71098065475134E-15,1.1207970652407E-14,
-1.));
#444=DIRECTION('ref_axis',(-1.,0.,0.));
#445=DIRECTION('center_axis',(0.,0.,-1.));
#446=DIRECTION('ref_axis',(1.,0.,0.));
#447=DIRECTION('',(0.,0.,1.));
#448=DIRECTION('center_axis',(-8.71098065475134E-15,-1.1207970652407E-14,
1.));
#449=DIRECTION('ref_axis',(1.,0.,0.));
#450=DIRECTION('center_axis',(-8.71098065475134E-15,-1.1207970652407E-14,
1.));
#451=DIRECTION('ref_axis',(1.,0.,0.));
#452=DIRECTION('center_axis',(-1.,1.04190160772515E-14,-8.71098065475123E-15));
#453=DIRECTION('ref_axis',(-8.71098065475134E-15,-1.1207970652407E-14,1.));
#454=DIRECTION('',(-1.,1.04190160772515E-14,-8.71098065475123E-15));
#455=DIRECTION('',(-1.,1.04190160772515E-14,-8.71098065475123E-15));
#456=DIRECTION('center_axis',(-8.71098065475134E-15,-1.1207970652407E-14,
1.));
#457=DIRECTION('ref_axis',(1.04409672521876E-14,1.,1.12079706524071E-14));
#458=DIRECTION('',(-1.,1.04190160772515E-14,-8.71098065475123E-15));
#459=DIRECTION('center_axis',(-1.,1.04190160772515E-14,-8.71098065475123E-15));
#460=DIRECTION('ref_axis',(8.71098065475134E-15,1.1207970652407E-14,-1.));
#461=DIRECTION('',(-1.,1.04190160772515E-14,-8.71098065475123E-15));
#462=DIRECTION('center_axis',(8.71098065475134E-15,1.1207970652407E-14,
-1.));
#463=DIRECTION('ref_axis',(-1.04409672521876E-14,-1.,-1.12079706524071E-14));
#464=DIRECTION('',(0.,0.,1.));
#465=DIRECTION('',(1.,0.,0.));
#466=CARTESIAN_POINT('',(0.,0.,0.));
#467=CARTESIAN_POINT('',(0.,0.,0.));
#468=CARTESIAN_POINT('Origin',(21.7795173785151,19.4445458340676,11.5));
#469=CARTESIAN_POINT('',(18.7795173785151,19.4445458340676,11.5));
#470=CARTESIAN_POINT('Origin',(21.7795173785151,19.4445458340676,11.5));
#471=CARTESIAN_POINT('Origin',(21.7795173785151,19.4445458340676,11.2));
#472=CARTESIAN_POINT('',(16.7795173785151,19.4445458340676,11.2));
#473=CARTESIAN_POINT('Origin',(21.7795173785151,19.4445458340676,11.2));
#474=CARTESIAN_POINT('Origin',(21.7795173785151,19.4445458340676,14.));
#475=CARTESIAN_POINT('',(16.7795173785151,19.4445458340676,14.));
#476=CARTESIAN_POINT('',(16.7795173785151,19.4445458340676,14.));
#477=CARTESIAN_POINT('Origin',(21.7795173785151,19.4445458340676,14.));
#478=CARTESIAN_POINT('Origin',(21.7795173785151,19.4445458340676,14.));
#479=CARTESIAN_POINT('',(18.7795173785151,19.4445458340676,16.));
#480=CARTESIAN_POINT('',(18.7795173785151,19.4445458340676,14.));
#481=CARTESIAN_POINT('Origin',(21.7795173785151,19.4445458340676,16.));
#482=CARTESIAN_POINT('Origin',(21.7795173785151,19.4445458340676,14.));
#483=CARTESIAN_POINT('',(-9.99071507772257,15.3199390836095,13.9999999999999));
#484=CARTESIAN_POINT('',(-9.98189058653706,23.6365638739648,14.));
#485=CARTESIAN_POINT('Origin',(21.7795173785151,19.4445458340676,14.));
#486=CARTESIAN_POINT('',(-10.1622647152005,16.978251478787,14.4999999999999));
#487=CARTESIAN_POINT('Ctrl Pts',(-9.99071507772257,15.3199390836095,13.9999999999999));
#488=CARTESIAN_POINT('Ctrl Pts',(-10.0113240398894,15.478681857972,14.1052980441481));
#489=CARTESIAN_POINT('Ctrl Pts',(-10.0322882389175,15.6496535263913,14.1966685080403));
#490=CARTESIAN_POINT('Ctrl Pts',(-10.0945532460709,16.1976607863204,14.4242252790873));
#491=CARTESIAN_POINT('Ctrl Pts',(-10.1330742433455,16.6001961630416,14.4999999999999));
#492=CARTESIAN_POINT('Ctrl Pts',(-10.1622647152005,16.978251478787,14.4999999999999));
#493=CARTESIAN_POINT('',(-10.1569881735208,21.978251478787,14.4999999999999));
#494=CARTESIAN_POINT('Origin',(21.7795173785151,19.4445458340676,14.4999999999999));
#495=CARTESIAN_POINT('Ctrl Pts',(-10.1569881735208,21.9782514787871,14.4999999999999));
#496=CARTESIAN_POINT('Ctrl Pts',(-10.1269922449721,22.3563400466641,14.4999999999999));
#497=CARTESIAN_POINT('Ctrl Pts',(-10.0876098084608,22.7588972236075,14.4242135765559));
#498=CARTESIAN_POINT('Ctrl Pts',(-10.0241688141239,23.3068941985013,14.1966445455375));
#499=CARTESIAN_POINT('Ctrl Pts',(-10.0028395890408,23.4778408416091,14.1052849487822));
#500=CARTESIAN_POINT('Ctrl Pts',(-9.98189058653706,23.6365638739648,14.));
#501=CARTESIAN_POINT('Origin',(21.7795173785151,19.4445458340676,16.));
#502=CARTESIAN_POINT('',(32.746717898409,51.6660911451259,16.));
#503=CARTESIAN_POINT('',(55.8163719552257,19.4445458340676,16.));
#504=CARTESIAN_POINT('Origin',(21.7795173785151,19.4445458340676,16.));
#505=CARTESIAN_POINT('',(55.8163719552257,119.444545834068,16.));
#506=CARTESIAN_POINT('',(55.8163719552257,119.444545834068,16.));
#507=CARTESIAN_POINT('',(55.8163719552257,119.444545834068,16.));
#508=CARTESIAN_POINT('Origin',(21.7795173785151,19.4445458340676,14.));
#509=CARTESIAN_POINT('Origin',(21.7795173785151,19.4445458340676,14.));
#510=CARTESIAN_POINT('Origin',(21.7795173785151,19.4445458340676,-6.52540443313683E-15));
#511=CARTESIAN_POINT('',(-11.2204826214849,19.4445458340676,-4.44089209850063E-14));
#512=CARTESIAN_POINT('Origin',(21.7795173785151,19.4445458340676,-4.44089209850063E-14));
#513=CARTESIAN_POINT('',(-11.2204826214849,19.4445458340676,0.799999999999994));
#514=CARTESIAN_POINT('',(-11.2204826214849,19.4445458340676,-6.52540443313683E-15));
#515=CARTESIAN_POINT('Origin',(21.7795173785151,19.4445458340676,0.799999999999994));
#516=CARTESIAN_POINT('Origin',(24.4730173785151,18.9444608974657,0.799999999999994));
#517=CARTESIAN_POINT('',(-10.2573371981955,19.4445458340676,0.799999999999994));
#518=CARTESIAN_POINT('Origin',(21.7795173785151,19.4445458340676,0.799999999999994));
#519=CARTESIAN_POINT('Origin',(21.7795173785151,19.4445458340676,-4.44089209850063E-14));
#520=CARTESIAN_POINT('',(-11.1204826214849,19.4445458340676,-4.44089209850063E-14));
#521=CARTESIAN_POINT('Origin',(21.7795173785151,19.4445458340676,-4.44089209850063E-14));
#522=CARTESIAN_POINT('Origin',(21.7795173785151,19.4445458340676,-0.500000000000044));
#523=CARTESIAN_POINT('',(55.8163719552257,19.4445458340676,-0.500000000000044));
#524=CARTESIAN_POINT('',(32.746717898409,51.6660911451259,-0.500000000000044));
#525=CARTESIAN_POINT('Origin',(21.7795173785151,19.4445458340676,-0.500000000000044));
#526=CARTESIAN_POINT('',(55.8163719552257,119.444545834068,-0.500000000000044));
#527=CARTESIAN_POINT('',(55.8163719552257,119.444545834068,-0.500000000000044));
#528=CARTESIAN_POINT('',(55.8163719552257,119.444545834068,-0.500000000000044));
#529=CARTESIAN_POINT('',(-11.6204826214849,19.4445458340676,-0.500000000000044));
#530=CARTESIAN_POINT('Origin',(21.7795173785151,19.4445458340676,-0.500000000000044));
#531=CARTESIAN_POINT('Origin',(21.7795173785151,19.4445458340676,-4.44089209850063E-14));
#532=CARTESIAN_POINT('Origin',(-11.6204826214849,19.4445458340676,-4.44089209850063E-14));
#533=CARTESIAN_POINT('Origin',(55.8163719552257,19.4445458340676,-0.500000000000044));
#534=CARTESIAN_POINT('',(55.8163719552257,119.444545834068,-0.500000000000044));
#535=CARTESIAN_POINT('',(55.8163719552257,19.4445458340676,16.));
#536=CARTESIAN_POINT('Origin',(55.8163719552257,119.444545834068,-0.500000000000044));
#537=CARTESIAN_POINT('',(32.746717898409,51.6660911451259,16.));
#538=CARTESIAN_POINT('Origin',(21.7795173785151,19.4445458340676,16.));
#539=CARTESIAN_POINT('',(-12.1629015862856,21.9782514787871,14.4999999999999));
#540=CARTESIAN_POINT('',(-12.1678663443767,16.9782514787871,14.4999999999999));
#541=CARTESIAN_POINT('Origin',(21.7795173785151,19.4445458340676,14.4999999999999));
#542=CARTESIAN_POINT('',(-12.1678663443767,16.9782514787871,8.49999999999986));
#543=CARTESIAN_POINT('Ctrl Pts',(-12.1678663443767,16.9782514787871,14.4999999999999));
#544=CARTESIAN_POINT('Ctrl Pts',(-12.1404119266912,16.600354310891,14.4999999999999));
#545=CARTESIAN_POINT('Ctrl Pts',(-12.1041829420874,16.1979045770342,14.4242824623469));
#546=CARTESIAN_POINT('Ctrl Pts',(-12.0251387037203,15.4581873408607,14.1172073236691));
#547=CARTESIAN_POINT('Ctrl Pts',(-11.9826744022209,15.1208727287287,13.8858729699508));
#548=CARTESIAN_POINT('Ctrl Pts',(-11.9103523003838,14.5894780313452,13.353253740723));
#549=CARTESIAN_POINT('Ctrl Pts',(-11.8756665412675,14.3592745918869,13.0167475558679));
#550=CARTESIAN_POINT('Ctrl Pts',(-11.8280647137188,14.0536447639342,12.2786131674985));
#551=CARTESIAN_POINT('Ctrl Pts',(-11.8155283201824,13.9782514787871,11.8769468219957));
#552=CARTESIAN_POINT('Ctrl Pts',(-11.8155283201824,13.9782514787871,11.1224726559824));
#553=CARTESIAN_POINT('Ctrl Pts',(-11.8281036777017,14.0538751334619,10.7202288517725));
#554=CARTESIAN_POINT('Ctrl Pts',(-11.8758338397669,14.3603686262509,9.98121443069313));
#555=CARTESIAN_POINT('Ctrl Pts',(-11.9106068732003,14.5912053276935,9.64440546397419));
#556=CARTESIAN_POINT('Ctrl Pts',(-11.9829727663167,15.1232098182629,9.11240097340482));
#557=CARTESIAN_POINT('Ctrl Pts',(-12.0253735627315,15.4602208847188,8.88169997367));
#558=CARTESIAN_POINT('Ctrl Pts',(-12.1042886745694,16.1990590905565,8.5754878727747));
#559=CARTESIAN_POINT('Ctrl Pts',(-12.1404539754974,16.6009330929642,8.49999999999987));
#560=CARTESIAN_POINT('Ctrl Pts',(-12.1678663443767,16.9782514787871,8.49999999999987));
#561=CARTESIAN_POINT('',(-12.1629015862856,21.9782514787871,8.49999999999992));
#562=CARTESIAN_POINT('Origin',(21.7795173785151,19.4445458340676,8.49999999999995));
#563=CARTESIAN_POINT('Ctrl Pts',(-12.1629015862856,21.9782514787871,8.49999999999993));
#564=CARTESIAN_POINT('Ctrl Pts',(-12.1347353834638,22.3555759161457,8.49999999999993));
#565=CARTESIAN_POINT('Ctrl Pts',(-12.0977647728868,22.7574460301569,8.57548894769335));
#566=CARTESIAN_POINT('Ctrl Pts',(-12.0173615185227,23.4962776243325,8.88169795157286));
#567=CARTESIAN_POINT('Ctrl Pts',(-11.974277698276,23.8332867365633,9.11239457065687));
#568=CARTESIAN_POINT('Ctrl Pts',(-11.9008302272008,24.3652774688329,9.64438530292645));
#569=CARTESIAN_POINT('Ctrl Pts',(-11.8655845685,24.5961140657131,9.9811792198549));
#570=CARTESIAN_POINT('Ctrl Pts',(-11.8172233604059,24.9026180348025,10.720191595798));
#571=CARTESIAN_POINT('Ctrl Pts',(-11.8044902934967,24.9782514787871,11.1224491058614));
#572=CARTESIAN_POINT('Ctrl Pts',(-11.8044902934967,24.9782514787871,11.4999999999999));
#573=CARTESIAN_POINT('Ctrl Pts',(-11.8044902934967,24.9782514787871,11.8769469213635));
#574=CARTESIAN_POINT('Ctrl Pts',(-11.8171823265107,24.9028577161068,12.2786036984802));
#575=CARTESIAN_POINT('Ctrl Pts',(-11.8654081927236,24.5972521930365,13.016700631345));
#576=CARTESIAN_POINT('Ctrl Pts',(-11.9005617269872,24.3670743261361,13.3531796186624));
#577=CARTESIAN_POINT('Ctrl Pts',(-11.9739623997006,23.8357178019596,13.8858099268099));
#578=CARTESIAN_POINT('Ctrl Pts',(-12.0171129406721,23.4983929229972,14.1171653805018));
#579=CARTESIAN_POINT('Ctrl Pts',(-12.0976523804019,22.7586469597606,14.4242721456159));
#580=CARTESIAN_POINT('Ctrl Pts',(-12.1346904409125,22.3561779824935,14.4999999999999));
#581=CARTESIAN_POINT('Ctrl Pts',(-12.1629015862856,21.9782514787871,14.4999999999999));
#582=CARTESIAN_POINT('Origin',(21.7795173785151,19.4445458340676,14.));
#583=CARTESIAN_POINT('',(-10.2573371981955,19.4445458340676,8.49999999999967));
#584=CARTESIAN_POINT('',(-10.2573371981955,19.4445458340676,14.));
#585=CARTESIAN_POINT('',(-10.1622647152005,16.9782514787871,8.49999999999988));
#586=CARTESIAN_POINT('Origin',(21.7795173785151,19.4445458340676,8.49999999999995));
#587=CARTESIAN_POINT('Ctrl Pts',(-10.1622647152005,16.9782514787871,8.49999999999989));
#588=CARTESIAN_POINT('Ctrl Pts',(-10.133124746454,16.6008502452618,8.49999999999989));
#589=CARTESIAN_POINT('Ctrl Pts',(-10.0946802350531,16.1989652001966,8.57551514672974));
#590=CARTESIAN_POINT('Ctrl Pts',(-10.0107796055945,15.46016572811,8.88173447469995));
#591=CARTESIAN_POINT('Ctrl Pts',(-9.96569313546867,15.1231984593343,9.1124123323334));
#592=CARTESIAN_POINT('Ctrl Pts',(-9.88873134374438,14.5912873443805,9.64432344728722));
#593=CARTESIAN_POINT('Ctrl Pts',(-9.85173656791445,14.3604568215173,9.9810623081622));
#594=CARTESIAN_POINT('Ctrl Pts',(-9.80094085974283,14.0539201795045,10.7200597303728));
#595=CARTESIAN_POINT('Ctrl Pts',(-9.78754895953302,13.9782514787871,11.1223618704068));
#596=CARTESIAN_POINT('Ctrl Pts',(-9.78754895953302,13.9782514787871,11.8769818248007));
#597=CARTESIAN_POINT('Ctrl Pts',(-9.8008939709705,14.0536597066342,12.2786314352701));
#598=CARTESIAN_POINT('Ctrl Pts',(-9.85153540400071,14.359220481872,13.0166346918426));
#599=CARTESIAN_POINT('Ctrl Pts',(-9.8884253257116,14.5893356523094,13.3530316501376));
#600=CARTESIAN_POINT('Ctrl Pts',(-9.94676425900432,14.9922901837482,13.7570354497056));
#601=CARTESIAN_POINT('Ctrl Pts',(-9.96852391494382,15.1490092368122,13.88661796654));
#602=CARTESIAN_POINT('Ctrl Pts',(-9.99071507772257,15.3199390836095,13.9999999999999));
#603=CARTESIAN_POINT('',(-10.1569881735208,21.9782514787871,8.49999999999994));
#604=CARTESIAN_POINT('Ctrl Pts',(-9.98189058653706,23.6365638739648,14.));
#605=CARTESIAN_POINT('Ctrl Pts',(-9.9593248899321,23.8075360141284,13.8865899122946));
#606=CARTESIAN_POINT('Ctrl Pts',(-9.93722007577215,23.9642928400647,13.7569696784033));
#607=CARTESIAN_POINT('Ctrl Pts',(-9.87800816614285,24.3672231662695,13.3529478281152));
#608=CARTESIAN_POINT('Ctrl Pts',(-9.84061978868139,24.5973093991256,13.0165816563482));
#609=CARTESIAN_POINT('Ctrl Pts',(-9.78931285680276,24.9028426910969,12.2786207953077));
#610=CARTESIAN_POINT('Ctrl Pts',(-9.77580155517501,24.9782514787871,11.8769820037367));
#611=CARTESIAN_POINT('Ctrl Pts',(-9.77580155517501,24.9782514787871,11.4999999999999));
#612=CARTESIAN_POINT('Ctrl Pts',(-9.77580155517501,24.9782514787871,11.122335145372));
#613=CARTESIAN_POINT('Ctrl Pts',(-9.78936224129255,24.9025716753138,10.7200174987233));
#614=CARTESIAN_POINT('Ctrl Pts',(-9.84083188400443,24.5960231826072,9.98102243896376));
#615=CARTESIAN_POINT('Ctrl Pts',(-9.87833094953146,24.3651928080032,9.6443006420968));
#616=CARTESIAN_POINT('Ctrl Pts',(-9.95644554688796,23.8332973302532,9.11240516434675));
#617=CARTESIAN_POINT('Ctrl Pts',(-10.002259754188,23.496332327252,8.88173226115228));
#618=CARTESIAN_POINT('Ctrl Pts',(-10.0877448030272,22.7575403322534,8.57551639563832));
#619=CARTESIAN_POINT('Ctrl Pts',(-10.1270462262276,22.3556596311347,8.49999999999995));
#620=CARTESIAN_POINT('Ctrl Pts',(-10.1569881735208,21.9782514787871,8.49999999999994));
#621=CARTESIAN_POINT('Origin',(21.7795173785151,19.4445458340676,8.49999999999995));
#622=CARTESIAN_POINT('Origin',(-9.34178993652269,21.9782514787871,11.5));
#623=CARTESIAN_POINT('',(-9.34178993652271,21.978251478787,14.4999999999999));
#624=CARTESIAN_POINT('',(-9.34178993652266,21.9782514787871,8.49999999999995));
#625=CARTESIAN_POINT('Origin',(-9.34178993652277,16.978251478787,14.4999999999999));
#626=CARTESIAN_POINT('',(-9.34178993652276,16.978251478787,14.4999999999999));
#627=CARTESIAN_POINT('Origin',(-9.34178993652274,16.9782514787871,11.4999999999999));
#628=CARTESIAN_POINT('',(-9.34178993652271,16.9782514787871,8.49999999999989));
#629=CARTESIAN_POINT('Origin',(-9.34178993652266,21.9782514787871,8.49999999999995));
#630=CARTESIAN_POINT('',(0.,0.,0.));
#631=UNCERTAINTY_MEASURE_WITH_UNIT(LENGTH_MEASURE(0.01),#637,
'DISTANCE_ACCURACY_VALUE',
'Maximum model space distance between geometric entities at asserted c
onnectivities');
#632=UNCERTAINTY_MEASURE_WITH_UNIT(LENGTH_MEASURE(0.01),#637,
'DISTANCE_ACCURACY_VALUE',
'Maximum model space distance between geometric entities at asserted c
onnectivities');
#633=UNCERTAINTY_MEASURE_WITH_UNIT(LENGTH_MEASURE(0.01),#637,
'DISTANCE_ACCURACY_VALUE',
'Maximum model space distance between geometric entities at asserted c
onnectivities');
#634=(
GEOMETRIC_REPRESENTATION_CONTEXT(3)
GLOBAL_UNCERTAINTY_ASSIGNED_CONTEXT((#631))
GLOBAL_UNIT_ASSIGNED_CONTEXT((#637,#639,#640))
REPRESENTATION_CONTEXT('','3D')
);
#635=(
GEOMETRIC_REPRESENTATION_CONTEXT(3)
GLOBAL_UNCERTAINTY_ASSIGNED_CONTEXT((#632))
GLOBAL_UNIT_ASSIGNED_CONTEXT((#637,#639,#640))
REPRESENTATION_CONTEXT('','3D')
);
#636=(
GEOMETRIC_REPRESENTATION_CONTEXT(3)
GLOBAL_UNCERTAINTY_ASSIGNED_CONTEXT((#633))
GLOBAL_UNIT_ASSIGNED_CONTEXT((#637,#639,#640))
REPRESENTATION_CONTEXT('','3D')
);
#637=(
LENGTH_UNIT()
NAMED_UNIT(*)
SI_UNIT(.MILLI.,.METRE.)
);
#638=(
LENGTH_UNIT()
NAMED_UNIT(*)
SI_UNIT($,.METRE.)
);
#639=(
NAMED_UNIT(*)
PLANE_ANGLE_UNIT()
SI_UNIT($,.RADIAN.)
);
#640=(
NAMED_UNIT(*)
SI_UNIT($,.STERADIAN.)
SOLID_ANGLE_UNIT()
);
#641=SHAPE_DEFINITION_REPRESENTATION(#643,#646);
#642=SHAPE_DEFINITION_REPRESENTATION(#644,#647);
#643=PRODUCT_DEFINITION_SHAPE('',$,#649);
#644=PRODUCT_DEFINITION_SHAPE('',$,#650);
#645=PRODUCT_DEFINITION_SHAPE($,$,#14);
#646=SHAPE_REPRESENTATION('',(#325,#366),#634);
#647=SHAPE_REPRESENTATION('',(#326),#635);
#648=PRODUCT_DEFINITION_CONTEXT('part definition',#656,'design');
#649=PRODUCT_DEFINITION('angle caliper','angle caliper v13',#651,#648);
#650=PRODUCT_DEFINITION('top cover (1)','top cover (1)',#652,#648);
#651=PRODUCT_DEFINITION_FORMATION('',$,#658);
#652=PRODUCT_DEFINITION_FORMATION('',$,#659);
#653=PRODUCT_RELATED_PRODUCT_CATEGORY('angle caliper v13',
'angle caliper v13',(#658));
#654=PRODUCT_RELATED_PRODUCT_CATEGORY('top cover (1)','top cover (1)',(#659));
#655=APPLICATION_PROTOCOL_DEFINITION('international standard',
'automotive_design',2009,#656);
#656=APPLICATION_CONTEXT(
'Core Data for Automotive Mechanical Design Process');
#657=PRODUCT_CONTEXT('part definition',#656,'mechanical');
#658=PRODUCT('angle caliper','angle caliper v13',$,(#657));
#659=PRODUCT('top cover (1)','top cover (1)',$,(#657));
#660=PRESENTATION_STYLE_ASSIGNMENT((#664));
#661=PRESENTATION_STYLE_ASSIGNMENT((#665));
#662=PRESENTATION_STYLE_ASSIGNMENT((#666));
#663=PRESENTATION_STYLE_ASSIGNMENT((#667));
#664=SURFACE_STYLE_USAGE(.BOTH.,#668);
#665=SURFACE_STYLE_USAGE(.BOTH.,#669);
#666=SURFACE_STYLE_USAGE(.BOTH.,#670);
#667=SURFACE_STYLE_USAGE(.BOTH.,#671);
#668=SURFACE_SIDE_STYLE('',(#672));
#669=SURFACE_SIDE_STYLE('',(#673));
#670=SURFACE_SIDE_STYLE('',(#674));
#671=SURFACE_SIDE_STYLE('',(#675));
#672=SURFACE_STYLE_FILL_AREA(#676);
#673=SURFACE_STYLE_FILL_AREA(#677);
#674=SURFACE_STYLE_FILL_AREA(#678);
#675=SURFACE_STYLE_FILL_AREA(#679);
#676=FILL_AREA_STYLE('Steel - Satin',(#680));
#677=FILL_AREA_STYLE('Aluminum - Polished',(#681));
#678=FILL_AREA_STYLE('Paint - Enamel Glossy (Red)',(#682));
#679=FILL_AREA_STYLE('Paint - Enamel Glossy (Green)',(#683));
#680=FILL_AREA_STYLE_COLOUR('Steel - Satin',#684);
#681=FILL_AREA_STYLE_COLOUR('Aluminum - Polished',#685);
#682=FILL_AREA_STYLE_COLOUR('Paint - Enamel Glossy (Red)',#686);
#683=FILL_AREA_STYLE_COLOUR('Paint - Enamel Glossy (Green)',#687);
#684=COLOUR_RGB('Steel - Satin',0.627450980392157,0.627450980392157,0.627450980392157);
#685=COLOUR_RGB('Aluminum - Polished',0.96078431372549,0.96078431372549,
0.964705882352941);
#686=COLOUR_RGB('Paint - Enamel Glossy (Red)',0.768627450980392,0.207843137254902,
0.152941176470588);
#687=COLOUR_RGB('Paint - Enamel Glossy (Green)',0.266666666666667,0.588235294117647,
0.282352941176471);
ENDSEC;
END-ISO-10303-21;
